cidkeyed-with-multiple-fdicts.ufo
<glyph name="cid00959" format="1" >
	<advance width="1000"/>
	<outline>
		<contour>
			<point x="755" y="-11" type="curve"/>
			<point x="783" y="-11" />
			<point x="801" y="11" />
			<point x="801" y="35" type="curve"/>
			<point x="801" y="61" />
			<point x="783" y="83" />
			<point x="755" y="83" type="curve"/>
			<point x="727" y="83" />
			<point x="709" y="61" />
			<point x="709" y="35" type="curve"/>
			<point x="709" y="11" />
			<point x="727" y="-11" />
		</contour>
		<contour>
			<point x="372" y="0" type="line"/>
			<point x="606" y="0" type="line"/>
			<point x="606" y="30" type="line"/>
			<point x="439" y="38" type="line"/>
			<point x="438" y="107" />
			<point x="437" y="175" />
			<point x="437" y="244" type="curve"/>
			<point x="437" y="579" type="line"/>
			<point x="441" y="747" type="line"/>
			<point x="426" y="762" type="line"/>
			<point x="215" y="703" type="line"/>
			<point x="215" y="671" type="line"/>
			<point x="375" y="706" type="line"/>
			<point x="375" y="244" type="line"/>
			<point x="375" y="175" />
			<point x="374" y="107" />
			<point x="373" y="38" type="curve"/>
			<point x="198" y="30" type="line"/>
			<point x="198" y="0" type="line"/>
		</contour>
	</outline>
</glyph>
<glyph name="cid00960" format="1" >
	<advance width="1000"/>
	<outline>
		<contour>
			<point x="764" y="-11" type="curve"/>
			<point x="791" y="-11" />
			<point x="810" y="11" />
			<point x="810" y="35" type="curve"/>
			<point x="810" y="61" />
			<point x="791" y="83" />
			<point x="764" y="83" type="curve"/>
			<point x="736" y="83" />
			<point x="718" y="61" />
			<point x="718" y="35" type="curve"/>
			<point x="718" y="11" />
			<point x="736" y="-11" />
		</contour>
		<contour>
			<point x="191" y="0" type="line"/>
			<point x="653" y="0" type="line"/>
			<point x="653" y="53" type="line"/>
			<point x="246" y="53" type="line"/>
			<point x="542" y="367" />
			<point x="611" y="452" />
			<point x="611" y="569" type="curve"/>
			<point x="611" y="687" />
			<point x="540" y="763" />
			<point x="404" y="763" type="curve"/>
			<point x="310" y="763" />
			<point x="231" y="725" />
			<point x="203" y="634" type="curve"/>
			<point x="209" y="617" />
			<point x="221" y="607" />
			<point x="237" y="607" type="curve"/>
			<point x="263" y="607" />
			<point x="275" y="616" />
			<point x="299" y="711" type="curve"/>
			<point x="331" y="727" />
			<point x="360" y="732" />
			<point x="393" y="732" type="curve"/>
			<point x="493" y="732" />
			<point x="545" y="661" />
			<point x="545" y="573" type="curve"/>
			<point x="545" y="455" />
			<point x="490" y="372" />
			<point x="191" y="39" type="curve"/>
		</contour>
	</outline>
</glyph>
<glyph name="cid00961" format="1" >
	<advance width="1000"/>
	<outline>
		<contour>
			<point x="771" y="-11" type="curve"/>
			<point x="799" y="-11" />
			<point x="817" y="11" />
			<point x="817" y="35" type="curve"/>
			<point x="817" y="61" />
			<point x="799" y="83" />
			<point x="771" y="83" type="curve"/>
			<point x="744" y="83" />
			<point x="725" y="61" />
			<point x="725" y="35" type="curve"/>
			<point x="725" y="11" />
			<point x="744" y="-11" />
		</contour>
		<contour>
			<point x="399" y="-17" type="curve"/>
			<point x="538" y="-17" />
			<point x="638" y="61" />
			<point x="638" y="189" type="curve"/>
			<point x="638" y="304" />
			<point x="574" y="378" />
			<point x="452" y="392" type="curve"/>
			<point x="560" y="415" />
			<point x="613" y="497" />
			<point x="613" y="584" type="curve"/>
			<point x="613" y="688" />
			<point x="539" y="763" />
			<point x="413" y="763" type="curve"/>
			<point x="320" y="763" />
			<point x="224" y="727" />
			<point x="203" y="630" type="curve"/>
			<point x="207" y="617" />
			<point x="219" y="607" />
			<point x="234" y="607" type="curve"/>
			<point x="258" y="607" />
			<point x="272" y="613" />
			<point x="298" y="711" type="curve"/>
			<point x="331" y="727" />
			<point x="361" y="732" />
			<point x="400" y="732" type="curve"/>
			<point x="494" y="732" />
			<point x="548" y="673" />
			<point x="548" y="582" type="curve"/>
			<point x="548" y="467" />
			<point x="472" y="404" />
			<point x="374" y="404" type="curve"/>
			<point x="324" y="404" type="line"/>
			<point x="324" y="374" type="line"/>
			<point x="374" y="374" type="line"/>
			<point x="505" y="374" />
			<point x="570" y="312" />
			<point x="570" y="191" type="curve"/>
			<point x="570" y="84" />
			<point x="502" y="15" />
			<point x="386" y="15" type="curve"/>
			<point x="335" y="15" />
			<point x="304" y="22" />
			<point x="275" y="39" type="curve"/>
			<point x="255" y="132" />
			<point x="239" y="143" />
			<point x="215" y="143" type="curve"/>
			<point x="197" y="143" />
			<point x="185" y="133" />
			<point x="182" y="115" type="curve"/>
			<point x="206" y="29" />
			<point x="284" y="-17" />
		</contour>
	</outline>
</glyph>
<glyph name="cid00962" format="1" >
	<advance width="1000"/>
	<outline>
		<contour>
			<point x="790" y="-11" type="curve"/>
			<point x="817" y="-11" />
			<point x="836" y="11" />
			<point x="836" y="35" type="curve"/>
			<point x="836" y="61" />
			<point x="817" y="83" />
			<point x="790" y="83" type="curve"/>
			<point x="762" y="83" />
			<point x="744" y="61" />
			<point x="744" y="35" type="curve"/>
			<point x="744" y="11" />
			<point x="762" y="-11" />
		</contour>
		<contour>
			<point x="504" y="0" type="line"/>
			<point x="563" y="0" type="line"/>
			<point x="563" y="230" type="line"/>
			<point x="699" y="230" type="line"/>
			<point x="699" y="279" type="line"/>
			<point x="563" y="279" type="line"/>
			<point x="563" y="756" type="line"/>
			<point x="520" y="756" type="line"/>
			<point x="164" y="271" type="line"/>
			<point x="164" y="230" type="line"/>
			<point x="504" y="230" type="line"/>
		</contour>
		<contour>
			<point x="208" y="279" type="line"/>
			<point x="504" y="684" type="line"/>
			<point x="504" y="279" type="line"/>
		</contour>
	</outline>
</glyph>
<glyph name="cid00963" format="1" >
	<advance width="1000"/>
	<outline>
		<contour>
			<point x="774" y="-11" type="curve"/>
			<point x="802" y="-11" />
			<point x="820" y="11" />
			<point x="820" y="35" type="curve"/>
			<point x="820" y="61" />
			<point x="802" y="83" />
			<point x="774" y="83" type="curve"/>
			<point x="746" y="83" />
			<point x="728" y="61" />
			<point x="728" y="35" type="curve"/>
			<point x="728" y="11" />
			<point x="746" y="-11" />
		</contour>
		<contour>
			<point x="396" y="-17" type="curve"/>
			<point x="556" y="-17" />
			<point x="653" y="84" />
			<point x="653" y="234" type="curve"/>
			<point x="653" y="376" />
			<point x="567" y="468" />
			<point x="420" y="468" type="curve"/>
			<point x="360" y="468" />
			<point x="311" y="452" />
			<point x="266" y="425" type="curve"/>
			<point x="285" y="692" type="line"/>
			<point x="627" y="692" type="line"/>
			<point x="627" y="747" type="line"/>
			<point x="254" y="747" type="line"/>
			<point x="229" y="388" type="line"/>
			<point x="251" y="383" type="line"/>
			<point x="301" y="417" />
			<point x="349" y="432" />
			<point x="402" y="432" type="curve"/>
			<point x="511" y="432" />
			<point x="586" y="364" />
			<point x="586" y="228" type="curve"/>
			<point x="586" y="94" />
			<point x="514" y="15" />
			<point x="394" y="15" type="curve"/>
			<point x="343" y="15" />
			<point x="305" y="23" />
			<point x="272" y="41" type="curve"/>
			<point x="244" y="134" />
			<point x="233" y="143" />
			<point x="211" y="143" type="curve"/>
			<point x="195" y="143" />
			<point x="183" y="134" />
			<point x="178" y="119" type="curve"/>
			<point x="200" y="30" />
			<point x="283" y="-17" />
		</contour>
	</outline>
</glyph>
<glyph name="cid00964" format="1" >
	<advance width="1000"/>
	<outline>
		<contour>
			<point x="772" y="-11" type="curve"/>
			<point x="800" y="-11" />
			<point x="818" y="11" />
			<point x="818" y="35" type="curve"/>
			<point x="818" y="61" />
			<point x="800" y="83" />
			<point x="772" y="83" type="curve"/>
			<point x="744" y="83" />
			<point x="726" y="61" />
			<point x="726" y="35" type="curve"/>
			<point x="726" y="11" />
			<point x="744" y="-11" />
		</contour>
		<contour>
			<point x="417" y="-17" type="curve"/>
			<point x="544" y="-17" />
			<point x="644" y="80" />
			<point x="644" y="229" type="curve"/>
			<point x="644" y="368" />
			<point x="566" y="451" />
			<point x="441" y="451" type="curve"/>
			<point x="367" y="451" />
			<point x="306" y="425" />
			<point x="255" y="360" type="curve"/>
			<point x="283" y="544" />
			<point x="410" y="695" />
			<point x="630" y="736" type="curve"/>
			<point x="626" y="763" type="line"/>
			<point x="349" y="729" />
			<point x="182" y="509" />
			<point x="182" y="281" type="curve"/>
			<point x="182" y="99" />
			<point x="269" y="-17" />
		</contour>
		<contour>
			<point x="251" y="322" type="line"/>
			<point x="305" y="392" />
			<point x="360" y="417" />
			<point x="422" y="417" type="curve"/>
			<point x="517" y="417" />
			<point x="579" y="350" />
			<point x="579" y="224" type="curve"/>
			<point x="579" y="90" />
			<point x="505" y="15" />
			<point x="420" y="15" type="curve"/>
			<point x="309" y="15" />
			<point x="249" y="125" />
			<point x="249" y="280" type="curve"/>
		</contour>
	</outline>
</glyph>
<glyph name="cid00965" format="1" >
	<advance width="1000"/>
	<outline>
		<contour>
			<point x="727" y="-11" type="curve"/>
			<point x="754" y="-11" />
			<point x="773" y="11" />
			<point x="773" y="35" type="curve"/>
			<point x="773" y="61" />
			<point x="754" y="83" />
			<point x="727" y="83" type="curve"/>
			<point x="699" y="83" />
			<point x="681" y="61" />
			<point x="681" y="35" type="curve"/>
			<point x="681" y="11" />
			<point x="699" y="-11" />
		</contour>
		<contour>
			<point x="343" y="0" type="line"/>
			<point x="402" y="0" type="line"/>
			<point x="693" y="709" type="line"/>
			<point x="693" y="746" type="line"/>
			<point x="226" y="746" type="line"/>
			<point x="226" y="692" type="line"/>
			<point x="650" y="692" type="line"/>
			<point x="338" y="5" type="line"/>
		</contour>
	</outline>
</glyph>
<glyph name="cid00966" format="1" >
	<advance width="1000"/>
	<outline>
		<contour>
			<point x="778" y="-11" type="curve"/>
			<point x="806" y="-11" />
			<point x="824" y="11" />
			<point x="824" y="35" type="curve"/>
			<point x="824" y="61" />
			<point x="806" y="83" />
			<point x="778" y="83" type="curve"/>
			<point x="750" y="83" />
			<point x="732" y="61" />
			<point x="732" y="35" type="curve"/>
			<point x="732" y="11" />
			<point x="750" y="-11" />
		</contour>
		<contour>
			<point x="403" y="-17" type="curve"/>
			<point x="555" y="-17" />
			<point x="643" y="56" />
			<point x="643" y="172" type="curve"/>
			<point x="643" y="267" />
			<point x="593" y="333" />
			<point x="445" y="395" type="curve"/>
			<point x="562" y="448" />
			<point x="612" y="512" />
			<point x="612" y="592" type="curve"/>
			<point x="612" y="695" />
			<point x="534" y="763" />
			<point x="411" y="763" type="curve"/>
			<point x="291" y="763" />
			<point x="198" y="690" />
			<point x="198" y="576" type="curve"/>
			<point x="198" y="490" />
			<point x="247" y="420" />
			<point x="361" y="370" type="curve"/>
			<point x="237" y="316" />
			<point x="175" y="253" />
			<point x="175" y="159" type="curve"/>
			<point x="175" y="52" />
			<point x="258" y="-17" />
		</contour>
		<contour>
			<point x="419" y="406" type="curve"/>
			<point x="296" y="457" />
			<point x="253" y="517" />
			<point x="253" y="587" type="curve"/>
			<point x="253" y="676" />
			<point x="323" y="733" />
			<point x="410" y="733" type="curve"/>
			<point x="500" y="733" />
			<point x="557" y="674" />
			<point x="557" y="591" type="curve"/>
			<point x="557" y="511" />
			<point x="517" y="464" />
		</contour>
		<contour>
			<point x="388" y="359" type="curve"/>
			<point x="542" y="296" />
			<point x="586" y="243" />
			<point x="586" y="163" type="curve"/>
			<point x="586" y="71" />
			<point x="519" y="15" />
			<point x="409" y="15" type="curve"/>
			<point x="295" y="15" />
			<point x="230" y="71" />
			<point x="230" y="163" type="curve"/>
			<point x="230" y="244" />
			<point x="272" y="295" />
		</contour>
	</outline>
</glyph>
<glyph name="cid00967" format="1" >
	<advance width="1000"/>
	<outline>
		<contour>
			<point x="725" y="-11" type="curve"/>
			<point x="753" y="-11" />
			<point x="771" y="11" />
			<point x="771" y="35" type="curve"/>
			<point x="771" y="61" />
			<point x="753" y="83" />
			<point x="725" y="83" type="curve"/>
			<point x="697" y="83" />
			<point x="679" y="61" />
			<point x="679" y="35" type="curve"/>
			<point x="679" y="11" />
			<point x="697" y="-11" />
		</contour>
		<contour>
			<point x="283" y="-17" type="line"/>
			<point x="542" y="60" />
			<point x="692" y="239" />
			<point x="692" y="458" type="curve"/>
			<point x="692" y="649" />
			<point x="602" y="763" />
			<point x="456" y="763" type="curve"/>
			<point x="332" y="763" />
			<point x="231" y="671" />
			<point x="229" y="537" type="curve"/>
			<point x="228" y="392" />
			<point x="315" y="303" />
			<point x="445" y="303" type="curve"/>
			<point x="516" y="303" />
			<point x="577" y="330" />
			<point x="616" y="376" type="curve"/>
			<point x="586" y="214" />
			<point x="470" y="83" />
			<point x="275" y="11" type="curve"/>
		</contour>
		<contour>
			<point x="621" y="412" type="curve"/>
			<point x="580" y="361" />
			<point x="522" y="336" />
			<point x="464" y="336" type="curve"/>
			<point x="362" y="336" />
			<point x="295" y="413" />
			<point x="295" y="537" type="curve"/>
			<point x="295" y="659" />
			<point x="366" y="732" />
			<point x="454" y="732" type="curve"/>
			<point x="554" y="732" />
			<point x="624" y="645" />
			<point x="624" y="463" type="curve"/>
			<point x="624" y="446" />
			<point x="623" y="429" />
		</contour>
	</outline>
</glyph>
<glyph name="cid00968" format="1" >
	<advance width="1000"/>
	<outline>
		<contour>
			<point x="560" y="-16" type="curve"/>
			<point x="652" y="-16" />
			<point x="729" y="75" />
			<point x="729" y="372" type="curve"/>
			<point x="729" y="671" />
			<point x="652" y="762" />
			<point x="560" y="762" type="curve"/>
			<point x="466" y="762" />
			<point x="391" y="671" />
			<point x="391" y="372" type="curve"/>
			<point x="391" y="75" />
			<point x="466" y="-16" />
		</contour>
		<contour>
			<point x="560" y="12" type="curve"/>
			<point x="500" y="12" />
			<point x="448" y="80" />
			<point x="448" y="372" type="curve"/>
			<point x="448" y="665" />
			<point x="500" y="734" />
			<point x="560" y="734" type="curve"/>
			<point x="619" y="734" />
			<point x="671" y="664" />
			<point x="671" y="372" type="curve"/>
			<point x="671" y="81" />
			<point x="619" y="12" />
		</contour>
		<contour>
			<point x="866" y="-11" type="curve"/>
			<point x="894" y="-11" />
			<point x="912" y="11" />
			<point x="912" y="35" type="curve"/>
			<point x="912" y="61" />
			<point x="894" y="83" />
			<point x="866" y="83" type="curve"/>
			<point x="838" y="83" />
			<point x="820" y="61" />
			<point x="820" y="35" type="curve"/>
			<point x="820" y="11" />
			<point x="838" y="-11" />
		</contour>
		<contour>
			<point x="190" y="0" type="line"/>
			<point x="347" y="0" type="line"/>
			<point x="347" y="28" type="line"/>
			<point x="250" y="35" type="line"/>
			<point x="248" y="244" type="line"/>
			<point x="248" y="580" type="line"/>
			<point x="252" y="746" type="line"/>
			<point x="237" y="761" type="line"/>
			<point x="92" y="714" type="line"/>
			<point x="92" y="683" type="line"/>
			<point x="192" y="706" type="line"/>
			<point x="192" y="244" type="line"/>
			<point x="190" y="35" type="line"/>
			<point x="87" y="28" type="line"/>
			<point x="87" y="0" type="line"/>
		</contour>
	</outline>
</glyph>
<glyph name="cid00969" format="1" >
	<advance width="1000"/>
	<outline>
		<contour>
			<point x="852" y="-11" type="curve"/>
			<point x="880" y="-11" />
			<point x="898" y="11" />
			<point x="898" y="35" type="curve"/>
			<point x="898" y="61" />
			<point x="880" y="83" />
			<point x="852" y="83" type="curve"/>
			<point x="824" y="83" />
			<point x="806" y="61" />
			<point x="806" y="35" type="curve"/>
			<point x="806" y="11" />
			<point x="824" y="-11" />
		</contour>
		<contour>
			<point x="204" y="0" type="line"/>
			<point x="361" y="0" type="line"/>
			<point x="361" y="28" type="line"/>
			<point x="264" y="35" type="line"/>
			<point x="262" y="244" type="line"/>
			<point x="262" y="580" type="line"/>
			<point x="266" y="746" type="line"/>
			<point x="251" y="761" type="line"/>
			<point x="105" y="714" type="line"/>
			<point x="105" y="683" type="line"/>
			<point x="206" y="706" type="line"/>
			<point x="206" y="244" type="line"/>
			<point x="204" y="35" type="line"/>
			<point x="101" y="28" type="line"/>
			<point x="101" y="0" type="line"/>
		</contour>
		<contour>
			<point x="504" y="0" type="line"/>
			<point x="661" y="0" type="line"/>
			<point x="661" y="28" type="line"/>
			<point x="563" y="35" type="line"/>
			<point x="562" y="105" />
			<point x="561" y="175" />
			<point x="561" y="244" type="curve"/>
			<point x="561" y="580" type="line"/>
			<point x="566" y="746" type="line"/>
			<point x="550" y="761" type="line"/>
			<point x="405" y="714" type="line"/>
			<point x="405" y="683" type="line"/>
			<point x="506" y="706" type="line"/>
			<point x="506" y="244" type="line"/>
			<point x="504" y="35" type="line"/>
			<point x="401" y="28" type="line"/>
			<point x="401" y="0" type="line"/>
		</contour>
	</outline>
</glyph>
<glyph name="cid00970" format="1" >
	<advance width="1000"/>
	<outline>
		<contour>
			<point x="869" y="-13" type="curve"/>
			<point x="901" y="-13" />
			<point x="924" y="13" />
			<point x="924" y="41" type="curve"/>
			<point x="924" y="71" />
			<point x="901" y="95" />
			<point x="869" y="95" type="curve"/>
			<point x="837" y="95" />
			<point x="814" y="71" />
			<point x="814" y="41" type="curve"/>
			<point x="814" y="13" />
			<point x="837" y="-13" />
		</contour>
		<contour>
			<point x="392" y="0" type="line"/>
			<point x="770" y="0" type="line"/>
			<point x="770" y="51" type="line"/>
			<point x="435" y="51" type="line"/>
			<point x="619" y="293" type="line"/>
			<point x="699" y="396" />
			<point x="742" y="480" />
			<point x="742" y="573" type="curve"/>
			<point x="742" y="688" />
			<point x="679" y="764" />
			<point x="572" y="764" type="curve"/>
			<point x="487" y="764" />
			<point x="418" y="710" />
			<point x="399" y="626" type="curve"/>
			<point x="405" y="613" />
			<point x="416" y="605" />
			<point x="428" y="605" type="curve"/>
			<point x="444" y="605" />
			<point x="456" y="615" />
			<point x="464" y="642" type="curve"/>
			<point x="498" y="723" type="line"/>
			<point x="518" y="732" />
			<point x="538" y="735" />
			<point x="560" y="735" type="curve"/>
			<point x="641" y="735" />
			<point x="683" y="664" />
			<point x="683" y="573" type="curve"/>
			<point x="683" y="483" />
			<point x="657" y="412" />
			<point x="577" y="299" type="curve"/>
			<point x="392" y="39" type="line"/>
		</contour>
		<contour>
			<point x="81" y="714" type="line"/>
			<point x="81" y="683" type="line"/>
			<point x="186" y="707" type="line"/>
			<point x="186" y="244" type="line"/>
			<point x="184" y="36" type="line"/>
			<point x="76" y="29" type="line"/>
			<point x="76" y="0" type="line"/>
			<point x="344" y="0" type="line"/>
			<point x="344" y="29" type="line"/>
			<point x="243" y="36" type="line"/>
			<point x="241" y="244" type="line"/>
			<point x="241" y="580" type="line"/>
			<point x="245" y="746" type="line"/>
			<point x="230" y="761" type="line"/>
		</contour>
	</outline>
</glyph>
<glyph name="cid00971" format="1" >
	<advance width="1000"/>
	<outline>
		<contour>
			<point x="877" y="-13" type="curve"/>
			<point x="909" y="-13" />
			<point x="932" y="13" />
			<point x="932" y="41" type="curve"/>
			<point x="932" y="71" />
			<point x="909" y="95" />
			<point x="877" y="95" type="curve"/>
			<point x="845" y="95" />
			<point x="822" y="71" />
			<point x="822" y="41" type="curve"/>
			<point x="822" y="13" />
			<point x="845" y="-13" />
		</contour>
		<contour>
			<point x="485" y="405" type="line"/>
			<point x="485" y="375" type="line"/>
			<point x="527" y="375" type="line"/>
			<point x="643" y="375" />
			<point x="700" y="318" />
			<point x="700" y="196" type="curve"/>
			<point x="700" y="84" />
			<point x="641" y="12" />
			<point x="544" y="12" type="curve"/>
			<point x="511" y="12" />
			<point x="486" y="18" />
			<point x="464" y="28" type="curve"/>
			<point x="438" y="104" type="line"/>
			<point x="432" y="130" />
			<point x="422" y="138" />
			<point x="407" y="138" type="curve"/>
			<point x="392" y="138" />
			<point x="380" y="128" />
			<point x="376" y="111" type="curve"/>
			<point x="399" y="25" />
			<point x="458" y="-18" />
			<point x="554" y="-18" type="curve"/>
			<point x="675" y="-18" />
			<point x="759" y="63" />
			<point x="759" y="193" type="curve"/>
			<point x="759" y="306" />
			<point x="702" y="379" />
			<point x="593" y="393" type="curve"/>
			<point x="690" y="414" />
			<point x="734" y="493" />
			<point x="734" y="579" type="curve"/>
			<point x="734" y="685" />
			<point x="672" y="764" />
			<point x="567" y="764" type="curve"/>
			<point x="490" y="764" />
			<point x="415" y="725" />
			<point x="391" y="633" type="curve"/>
			<point x="395" y="621" />
			<point x="406" y="613" />
			<point x="416" y="613" type="curve"/>
			<point x="435" y="613" />
			<point x="446" y="623" />
			<point x="452" y="643" type="curve"/>
			<point x="479" y="716" type="line"/>
			<point x="503" y="729" />
			<point x="528" y="735" />
			<point x="558" y="735" type="curve"/>
			<point x="631" y="735" />
			<point x="676" y="671" />
			<point x="676" y="577" type="curve"/>
			<point x="676" y="467" />
			<point x="614" y="405" />
			<point x="524" y="405" type="curve"/>
		</contour>
		<contour>
			<point x="73" y="714" type="line"/>
			<point x="73" y="683" type="line"/>
			<point x="178" y="707" type="line"/>
			<point x="178" y="244" type="line"/>
			<point x="176" y="36" type="line"/>
			<point x="68" y="29" type="line"/>
			<point x="68" y="0" type="line"/>
			<point x="337" y="0" type="line"/>
			<point x="337" y="29" type="line"/>
			<point x="236" y="36" type="line"/>
			<point x="234" y="244" type="line"/>
			<point x="234" y="580" type="line"/>
			<point x="238" y="746" type="line"/>
			<point x="223" y="761" type="line"/>
		</contour>
	</outline>
</glyph>
<glyph name="cid00972" format="1" >
	<advance width="1000"/>
	<outline>
		<contour>
			<point x="875" y="-13" type="curve"/>
			<point x="907" y="-13" />
			<point x="930" y="13" />
			<point x="930" y="41" type="curve"/>
			<point x="930" y="71" />
			<point x="907" y="95" />
			<point x="875" y="95" type="curve"/>
			<point x="843" y="95" />
			<point x="820" y="71" />
			<point x="820" y="41" type="curve"/>
			<point x="820" y="13" />
			<point x="843" y="-13" />
		</contour>
		<contour>
			<point x="406" y="272" type="line"/>
			<point x="630" y="671" type="line"/>
			<point x="630" y="272" type="line"/>
		</contour>
		<contour>
			<point x="776" y="224" type="line"/>
			<point x="776" y="272" type="line"/>
			<point x="683" y="272" type="line"/>
			<point x="683" y="756" type="line"/>
			<point x="644" y="756" type="line"/>
			<point x="367" y="262" type="line"/>
			<point x="367" y="224" type="line"/>
			<point x="630" y="224" type="line"/>
			<point x="630" y="0" type="line"/>
			<point x="683" y="0" type="line"/>
			<point x="683" y="224" type="line"/>
		</contour>
		<contour>
			<point x="76" y="714" type="line"/>
			<point x="76" y="683" type="line"/>
			<point x="180" y="707" type="line"/>
			<point x="180" y="244" type="line"/>
			<point x="178" y="36" type="line"/>
			<point x="70" y="29" type="line"/>
			<point x="70" y="0" type="line"/>
			<point x="339" y="0" type="line"/>
			<point x="339" y="29" type="line"/>
			<point x="237" y="36" type="line"/>
			<point x="235" y="244" type="line"/>
			<point x="235" y="580" type="line"/>
			<point x="239" y="746" type="line"/>
			<point x="224" y="761" type="line"/>
		</contour>
	</outline>
</glyph>
<glyph name="cid00973" format="1" >
	<advance width="1000"/>
	<outline>
		<contour>
			<point x="874" y="-13" type="curve"/>
			<point x="906" y="-13" />
			<point x="929" y="13" />
			<point x="929" y="41" type="curve"/>
			<point x="929" y="71" />
			<point x="906" y="95" />
			<point x="874" y="95" type="curve"/>
			<point x="842" y="95" />
			<point x="819" y="71" />
			<point x="819" y="41" type="curve"/>
			<point x="819" y="13" />
			<point x="842" y="-13" />
		</contour>
		<contour>
			<point x="459" y="695" type="line"/>
			<point x="730" y="695" type="line"/>
			<point x="730" y="746" type="line"/>
			<point x="428" y="746" type="line"/>
			<point x="411" y="389" type="line"/>
			<point x="432" y="384" type="line"/>
			<point x="468" y="417" />
			<point x="515" y="430" />
			<point x="557" y="430" type="curve"/>
			<point x="641" y="430" />
			<point x="699" y="363" />
			<point x="699" y="222" type="curve"/>
			<point x="699" y="83" />
			<point x="641" y="12" />
			<point x="539" y="12" type="curve"/>
			<point x="507" y="12" />
			<point x="484" y="17" />
			<point x="464" y="26" type="curve"/>
			<point x="433" y="106" type="line"/>
			<point x="427" y="131" />
			<point x="419" y="139" />
			<point x="402" y="139" type="curve"/>
			<point x="389" y="139" />
			<point x="376" y="129" />
			<point x="372" y="112" type="curve"/>
			<point x="395" y="26" />
			<point x="456" y="-18" />
			<point x="544" y="-18" type="curve"/>
			<point x="680" y="-18" />
			<point x="758" y="77" />
			<point x="758" y="230" type="curve"/>
			<point x="758" y="375" />
			<point x="682" y="462" />
			<point x="569" y="462" type="curve"/>
			<point x="524" y="462" />
			<point x="484" y="452" />
			<point x="445" y="427" type="curve"/>
		</contour>
		<contour>
			<point x="76" y="714" type="line"/>
			<point x="76" y="683" type="line"/>
			<point x="181" y="707" type="line"/>
			<point x="181" y="244" type="line"/>
			<point x="179" y="36" type="line"/>
			<point x="71" y="29" type="line"/>
			<point x="71" y="0" type="line"/>
			<point x="339" y="0" type="line"/>
			<point x="339" y="29" type="line"/>
			<point x="238" y="36" type="line"/>
			<point x="236" y="244" type="line"/>
			<point x="236" y="580" type="line"/>
			<point x="240" y="746" type="line"/>
			<point x="225" y="761" type="line"/>
		</contour>
	</outline>
</glyph>
<glyph name="cid00974" format="1" >
	<advance width="1000"/>
	<outline>
		<contour>
			<point x="877" y="-13" type="curve"/>
			<point x="909" y="-13" />
			<point x="932" y="13" />
			<point x="932" y="41" type="curve"/>
			<point x="932" y="71" />
			<point x="909" y="95" />
			<point x="877" y="95" type="curve"/>
			<point x="845" y="95" />
			<point x="822" y="71" />
			<point x="822" y="41" type="curve"/>
			<point x="822" y="13" />
			<point x="845" y="-13" />
		</contour>
		<contour>
			<point x="456" y="359" type="curve"/>
			<point x="475" y="546" />
			<point x="574" y="700" />
			<point x="738" y="738" type="curve"/>
			<point x="732" y="764" type="line"/>
			<point x="524" y="729" />
			<point x="394" y="515" />
			<point x="394" y="280" type="curve"/>
			<point x="394" y="83" />
			<point x="462" y="-18" />
			<point x="579" y="-18" type="curve"/>
			<point x="676" y="-18" />
			<point x="752" y="67" />
			<point x="752" y="222" type="curve"/>
			<point x="752" y="372" />
			<point x="691" y="447" />
			<point x="597" y="447" type="curve"/>
			<point x="540" y="447" />
			<point x="494" y="422" />
		</contour>
		<contour>
			<point x="582" y="13" type="curve"/>
			<point x="498" y="13" />
			<point x="452" y="110" />
			<point x="452" y="290" type="curve"/>
			<point x="452" y="316" type="line"/>
			<point x="493" y="390" />
			<point x="532" y="414" />
			<point x="580" y="414" type="curve"/>
			<point x="650" y="414" />
			<point x="696" y="357" />
			<point x="696" y="215" type="curve"/>
			<point x="696" y="72" />
			<point x="643" y="13" />
		</contour>
		<contour>
			<point x="74" y="714" type="line"/>
			<point x="74" y="683" type="line"/>
			<point x="178" y="707" type="line"/>
			<point x="178" y="244" type="line"/>
			<point x="176" y="36" type="line"/>
			<point x="68" y="29" type="line"/>
			<point x="68" y="0" type="line"/>
			<point x="338" y="0" type="line"/>
			<point x="338" y="29" type="line"/>
			<point x="236" y="36" type="line"/>
			<point x="234" y="244" type="line"/>
			<point x="234" y="580" type="line"/>
			<point x="238" y="746" type="line"/>
			<point x="223" y="761" type="line"/>
		</contour>
	</outline>
</glyph>
<glyph name="cid00975" format="1" >
	<advance width="1000"/>
	<outline>
		<contour>
			<point x="839" y="-13" type="curve"/>
			<point x="871" y="-13" />
			<point x="894" y="13" />
			<point x="894" y="41" type="curve"/>
			<point x="894" y="71" />
			<point x="871" y="95" />
			<point x="839" y="95" type="curve"/>
			<point x="807" y="95" />
			<point x="784" y="71" />
			<point x="784" y="41" type="curve"/>
			<point x="784" y="13" />
			<point x="807" y="-13" />
		</contour>
		<contour>
			<point x="505" y="5" type="line"/>
			<point x="510" y="0" type="line"/>
			<point x="565" y="0" type="line"/>
			<point x="798" y="711" type="line"/>
			<point x="798" y="746" type="line"/>
			<point x="420" y="746" type="line"/>
			<point x="420" y="695" type="line"/>
			<point x="760" y="695" type="line"/>
		</contour>
		<contour>
			<point x="112" y="714" type="line"/>
			<point x="112" y="683" type="line"/>
			<point x="216" y="707" type="line"/>
			<point x="216" y="244" type="line"/>
			<point x="214" y="36" type="line"/>
			<point x="106" y="29" type="line"/>
			<point x="106" y="0" type="line"/>
			<point x="375" y="0" type="line"/>
			<point x="375" y="29" type="line"/>
			<point x="273" y="36" type="line"/>
			<point x="272" y="105" />
			<point x="271" y="175" />
			<point x="271" y="244" type="curve"/>
			<point x="271" y="580" type="line"/>
			<point x="275" y="746" type="line"/>
			<point x="260" y="761" type="line"/>
		</contour>
	</outline>
</glyph>
<glyph name="cid00976" format="1" >
	<advance width="1000"/>
	<outline>
		<contour>
			<point x="880" y="-13" type="curve"/>
			<point x="912" y="-13" />
			<point x="935" y="13" />
			<point x="935" y="41" type="curve"/>
			<point x="935" y="71" />
			<point x="912" y="95" />
			<point x="880" y="95" type="curve"/>
			<point x="848" y="95" />
			<point x="825" y="71" />
			<point x="825" y="41" type="curve"/>
			<point x="825" y="13" />
			<point x="848" y="-13" />
		</contour>
		<contour>
			<point x="379" y="158" type="curve"/>
			<point x="379" y="51" />
			<point x="447" y="-18" />
			<point x="562" y="-18" type="curve"/>
			<point x="680" y="-18" />
			<point x="755" y="51" />
			<point x="755" y="159" type="curve"/>
			<point x="755" y="255" />
			<point x="710" y="323" />
			<point x="595" y="394" type="curve"/>
			<point x="693" y="458" />
			<point x="728" y="519" />
			<point x="728" y="595" type="curve"/>
			<point x="728" y="695" />
			<point x="667" y="764" />
			<point x="568" y="764" type="curve"/>
			<point x="476" y="764" />
			<point x="401" y="692" />
			<point x="401" y="588" type="curve"/>
			<point x="401" y="497" />
			<point x="442" y="430" />
			<point x="531" y="372" type="curve"/>
			<point x="429" y="302" />
			<point x="379" y="247" />
		</contour>
		<contour>
			<point x="576" y="405" type="curve"/>
			<point x="482" y="465" />
			<point x="451" y="524" />
			<point x="451" y="597" type="curve"/>
			<point x="451" y="680" />
			<point x="505" y="735" />
			<point x="567" y="735" type="curve"/>
			<point x="639" y="735" />
			<point x="680" y="674" />
			<point x="680" y="598" type="curve"/>
			<point x="680" y="513" />
			<point x="649" y="469" />
		</contour>
		<contour>
			<point x="551" y="359" type="curve"/>
			<point x="672" y="286" />
			<point x="704" y="226" />
			<point x="704" y="152" type="curve"/>
			<point x="704" y="65" />
			<point x="653" y="11" />
			<point x="564" y="11" type="curve"/>
			<point x="483" y="11" />
			<point x="428" y="76" />
			<point x="428" y="160" type="curve"/>
			<point x="428" y="240" />
			<point x="461" y="287" />
		</contour>
		<contour>
			<point x="71" y="714" type="line"/>
			<point x="71" y="683" type="line"/>
			<point x="175" y="707" type="line"/>
			<point x="175" y="244" type="line"/>
			<point x="173" y="36" type="line"/>
			<point x="65" y="29" type="line"/>
			<point x="65" y="0" type="line"/>
			<point x="334" y="0" type="line"/>
			<point x="334" y="29" type="line"/>
			<point x="232" y="36" type="line"/>
			<point x="230" y="244" type="line"/>
			<point x="230" y="580" type="line"/>
			<point x="234" y="746" type="line"/>
			<point x="219" y="761" type="line"/>
		</contour>
	</outline>
</glyph>
<glyph name="cid00977" format="1" >
	<advance width="1000"/>
	<outline>
		<contour>
			<point x="837" y="-13" type="curve"/>
			<point x="869" y="-13" />
			<point x="892" y="13" />
			<point x="892" y="41" type="curve"/>
			<point x="892" y="71" />
			<point x="869" y="95" />
			<point x="837" y="95" type="curve"/>
			<point x="806" y="95" />
			<point x="782" y="71" />
			<point x="782" y="41" type="curve"/>
			<point x="782" y="13" />
			<point x="806" y="-13" />
		</contour>
		<contour>
			<point x="721" y="374" type="curve"/>
			<point x="698" y="207" />
			<point x="609" y="71" />
			<point x="453" y="9" type="curve"/>
			<point x="461" y="-18" type="line"/>
			<point x="672" y="53" />
			<point x="785" y="239" />
			<point x="785" y="459" type="curve"/>
			<point x="785" y="660" />
			<point x="718" y="764" />
			<point x="605" y="764" type="curve"/>
			<point x="500" y="764" />
			<point x="427" y="666" />
			<point x="428" y="536" type="curve"/>
			<point x="428" y="380" />
			<point x="503" y="303" />
			<point x="594" y="303" type="curve"/>
			<point x="647" y="303" />
			<point x="690" y="330" />
		</contour>
		<contour>
			<point x="484" y="535" type="curve"/>
			<point x="484" y="655" />
			<point x="531" y="734" />
			<point x="604" y="734" type="curve"/>
			<point x="680" y="734" />
			<point x="727" y="647" />
			<point x="727" y="463" type="curve"/>
			<point x="725" y="413" type="line"/>
			<point x="692" y="362" />
			<point x="651" y="334" />
			<point x="607" y="334" type="curve"/>
			<point x="544" y="334" />
			<point x="484" y="399" />
		</contour>
		<contour>
			<point x="113" y="714" type="line"/>
			<point x="113" y="683" type="line"/>
			<point x="217" y="707" type="line"/>
			<point x="217" y="244" type="line"/>
			<point x="215" y="36" type="line"/>
			<point x="108" y="29" type="line"/>
			<point x="108" y="0" type="line"/>
			<point x="376" y="0" type="line"/>
			<point x="376" y="29" type="line"/>
			<point x="275" y="36" type="line"/>
			<point x="273" y="244" type="line"/>
			<point x="273" y="580" type="line"/>
			<point x="277" y="746" type="line"/>
			<point x="262" y="761" type="line"/>
		</contour>
	</outline>
</glyph>
<glyph name="cid00978" format="1" >
	<advance width="1000"/>
	<outline>
		<contour>
			<point x="531" y="372" type="curve"/>
			<point x="531" y="660" />
			<point x="589" y="735" />
			<point x="657" y="735" type="curve"/>
			<point x="724" y="735" />
			<point x="783" y="660" />
			<point x="783" y="372" type="curve"/>
			<point x="783" y="86" />
			<point x="724" y="11" />
			<point x="657" y="11" type="curve"/>
			<point x="589" y="11" />
			<point x="531" y="85" />
		</contour>
		<contour>
			<point x="657" y="764" type="curve"/>
			<point x="555" y="764" />
			<point x="472" y="667" />
			<point x="472" y="372" type="curve"/>
			<point x="472" y="79" />
			<point x="555" y="-18" />
			<point x="657" y="-18" type="curve"/>
			<point x="758" y="-18" />
			<point x="842" y="79" />
			<point x="842" y="372" type="curve"/>
			<point x="842" y="667" />
			<point x="758" y="764" />
		</contour>
		<contour>
			<point x="900" y="-13" type="curve"/>
			<point x="932" y="-13" />
			<point x="955" y="13" />
			<point x="955" y="41" type="curve"/>
			<point x="955" y="71" />
			<point x="932" y="95" />
			<point x="900" y="95" type="curve"/>
			<point x="868" y="95" />
			<point x="845" y="71" />
			<point x="845" y="41" type="curve"/>
			<point x="845" y="13" />
			<point x="868" y="-13" />
		</contour>
		<contour>
			<point x="46" y="0" type="line"/>
			<point x="424" y="0" type="line"/>
			<point x="424" y="51" type="line"/>
			<point x="89" y="51" type="line"/>
			<point x="272" y="293" type="line"/>
			<point x="353" y="396" />
			<point x="395" y="480" />
			<point x="395" y="573" type="curve"/>
			<point x="395" y="688" />
			<point x="332" y="764" />
			<point x="225" y="764" type="curve"/>
			<point x="141" y="764" />
			<point x="71" y="710" />
			<point x="52" y="626" type="curve"/>
			<point x="59" y="613" />
			<point x="69" y="605" />
			<point x="81" y="605" type="curve"/>
			<point x="97" y="605" />
			<point x="109" y="615" />
			<point x="117" y="642" type="curve"/>
			<point x="151" y="723" type="line"/>
			<point x="171" y="732" />
			<point x="190" y="735" />
			<point x="213" y="735" type="curve"/>
			<point x="294" y="735" />
			<point x="336" y="664" />
			<point x="336" y="573" type="curve"/>
			<point x="336" y="483" />
			<point x="310" y="412" />
			<point x="231" y="299" type="curve"/>
			<point x="46" y="39" type="line"/>
		</contour>
	</outline>
</glyph>
<glyph name="cid01083" format="1" >
	<advance width="1000"/>
	<outline>
		<contour>
			<point x="722" y="360" type="line"/>
			<point x="944" y="360" type="line"/>
			<point x="944" y="400" type="line"/>
			<point x="722" y="400" type="line"/>
		</contour>
		<contour>
			<point x="389" y="360" type="line"/>
			<point x="611" y="360" type="line"/>
			<point x="611" y="400" type="line"/>
			<point x="389" y="400" type="line"/>
		</contour>
		<contour>
			<point x="56" y="360" type="line"/>
			<point x="278" y="360" type="line"/>
			<point x="278" y="400" type="line"/>
			<point x="56" y="400" type="line"/>
		</contour>
	</outline>
</glyph>
<glyph name="cid01084" format="1" >
	<advance width="1000"/>
	<outline>
		<contour>
			<point x="722" y="320" type="line"/>
			<point x="944" y="320" type="line"/>
			<point x="944" y="440" type="line"/>
			<point x="722" y="440" type="line"/>
		</contour>
		<contour>
			<point x="389" y="320" type="line"/>
			<point x="611" y="320" type="line"/>
			<point x="611" y="440" type="line"/>
			<point x="389" y="440" type="line"/>
		</contour>
		<contour>
			<point x="56" y="320" type="line"/>
			<point x="278" y="320" type="line"/>
			<point x="278" y="440" type="line"/>
			<point x="56" y="440" type="line"/>
		</contour>
	</outline>
</glyph>
<glyph name="cid01085" format="1" >
	<advance width="1000"/>
	<outline>
		<contour>
			<point x="480" y="602" type="line"/>
			<point x="520" y="602" type="line"/>
			<point x="520" y="824" type="line"/>
			<point x="480" y="824" type="line"/>
		</contour>
		<contour>
			<point x="480" y="269" type="line"/>
			<point x="520" y="269" type="line"/>
			<point x="520" y="491" type="line"/>
			<point x="480" y="491" type="line"/>
		</contour>
		<contour>
			<point x="480" y="-64" type="line"/>
			<point x="520" y="-64" type="line"/>
			<point x="520" y="158" type="line"/>
			<point x="480" y="158" type="line"/>
		</contour>
	</outline>
</glyph>
<glyph name="cid01086" format="1" >
	<advance width="1000"/>
	<outline>
		<contour>
			<point x="440" y="602" type="line"/>
			<point x="560" y="602" type="line"/>
			<point x="560" y="824" type="line"/>
			<point x="440" y="824" type="line"/>
		</contour>
		<contour>
			<point x="440" y="269" type="line"/>
			<point x="560" y="269" type="line"/>
			<point x="560" y="491" type="line"/>
			<point x="440" y="491" type="line"/>
		</contour>
		<contour>
			<point x="440" y="-64" type="line"/>
			<point x="560" y="-64" type="line"/>
			<point x="560" y="158" type="line"/>
			<point x="440" y="158" type="line"/>
		</contour>
	</outline>
</glyph>
<glyph name="cid01087" format="1" >
	<advance width="1000"/>
	<outline>
		<contour>
			<point x="781" y="360" type="line"/>
			<point x="969" y="360" type="line"/>
			<point x="969" y="400" type="line"/>
			<point x="781" y="400" type="line"/>
		</contour>
		<contour>
			<point x="531" y="360" type="line"/>
			<point x="719" y="360" type="line"/>
			<point x="719" y="400" type="line"/>
			<point x="531" y="400" type="line"/>
		</contour>
		<contour>
			<point x="281" y="360" type="line"/>
			<point x="469" y="360" type="line"/>
			<point x="469" y="400" type="line"/>
			<point x="281" y="400" type="line"/>
		</contour>
		<contour>
			<point x="31" y="360" type="line"/>
			<point x="219" y="360" type="line"/>
			<point x="219" y="400" type="line"/>
			<point x="31" y="400" type="line"/>
		</contour>
	</outline>
</glyph>
<glyph name="cid01088" format="1" >
	<advance width="1000"/>
	<outline>
		<contour>
			<point x="781" y="320" type="line"/>
			<point x="969" y="320" type="line"/>
			<point x="969" y="440" type="line"/>
			<point x="781" y="440" type="line"/>
		</contour>
		<contour>
			<point x="531" y="320" type="line"/>
			<point x="719" y="320" type="line"/>
			<point x="719" y="440" type="line"/>
			<point x="531" y="440" type="line"/>
		</contour>
		<contour>
			<point x="281" y="320" type="line"/>
			<point x="469" y="320" type="line"/>
			<point x="469" y="440" type="line"/>
			<point x="281" y="440" type="line"/>
		</contour>
		<contour>
			<point x="31" y="320" type="line"/>
			<point x="219" y="320" type="line"/>
			<point x="219" y="440" type="line"/>
			<point x="31" y="440" type="line"/>
		</contour>
	</outline>
</glyph>
<glyph name="cid01089" format="1" >
	<advance width="1000"/>
	<outline>
		<contour>
			<point x="480" y="661" type="line"/>
			<point x="520" y="661" type="line"/>
			<point x="520" y="849" type="line"/>
			<point x="480" y="849" type="line"/>
		</contour>
		<contour>
			<point x="480" y="411" type="line"/>
			<point x="520" y="411" type="line"/>
			<point x="520" y="599" type="line"/>
			<point x="480" y="599" type="line"/>
		</contour>
		<contour>
			<point x="480" y="161" type="line"/>
			<point x="520" y="161" type="line"/>
			<point x="520" y="349" type="line"/>
			<point x="480" y="349" type="line"/>
		</contour>
		<contour>
			<point x="480" y="-89" type="line"/>
			<point x="520" y="-89" type="line"/>
			<point x="520" y="99" type="line"/>
			<point x="480" y="99" type="line"/>
		</contour>
	</outline>
</glyph>
<glyph name="cid01090" format="1" >
	<advance width="1000"/>
	<outline>
		<contour>
			<point x="440" y="661" type="line"/>
			<point x="560" y="661" type="line"/>
			<point x="560" y="849" type="line"/>
			<point x="440" y="849" type="line"/>
		</contour>
		<contour>
			<point x="440" y="411" type="line"/>
			<point x="560" y="411" type="line"/>
			<point x="560" y="599" type="line"/>
			<point x="440" y="599" type="line"/>
		</contour>
		<contour>
			<point x="440" y="161" type="line"/>
			<point x="560" y="161" type="line"/>
			<point x="560" y="349" type="line"/>
			<point x="440" y="349" type="line"/>
		</contour>
		<contour>
			<point x="440" y="-89" type="line"/>
			<point x="560" y="-89" type="line"/>
			<point x="560" y="99" type="line"/>
			<point x="440" y="99" type="line"/>
		</contour>
	</outline>
</glyph>
<glyph name="cid01097" format="1" >
	<advance width="1000"/>
	<outline>
		<contour>
			<point x="560" y="-120" type="line"/>
			<point x="560" y="400" type="line"/>
			<point x="0" y="400" type="line"/>
			<point x="0" y="360" type="line"/>
			<point x="440" y="360" type="line"/>
			<point x="440" y="-120" type="line"/>
		</contour>
	</outline>
</glyph>
<glyph name="cid01116" format="1" >
	<advance width="1000"/>
	<outline>
		<contour>
			<point x="520" y="-120" type="line"/>
			<point x="520" y="880" type="line"/>
			<point x="480" y="880" type="line"/>
			<point x="480" y="440" type="line"/>
			<point x="0" y="440" type="line"/>
			<point x="0" y="320" type="line"/>
			<point x="480" y="320" type="line"/>
			<point x="480" y="-120" type="line"/>
		</contour>
	</outline>
</glyph>
<glyph name="cid01119" format="1" >
	<advance width="1000"/>
	<outline>
		<contour>
			<point x="560" y="-120" type="line"/>
			<point x="560" y="880" type="line"/>
			<point x="440" y="880" type="line"/>
			<point x="440" y="400" type="line"/>
			<point x="0" y="400" type="line"/>
			<point x="0" y="360" type="line"/>
			<point x="440" y="360" type="line"/>
			<point x="440" y="-120" type="line"/>
		</contour>
	</outline>
</glyph>
<glyph name="cid01120" format="1" >
	<advance width="1000"/>
	<outline>
		<contour>
			<point x="560" y="320" type="line"/>
			<point x="560" y="880" type="line"/>
			<point x="440" y="880" type="line"/>
			<point x="440" y="440" type="line"/>
			<point x="0" y="440" type="line"/>
			<point x="0" y="320" type="line"/>
			<point x="480" y="320" type="line"/>
			<point x="480" y="-120" type="line"/>
			<point x="520" y="-120" type="line"/>
			<point x="520" y="320" type="line"/>
		</contour>
	</outline>
</glyph>
<glyph name="cid01121" format="1" >
	<advance width="1000"/>
	<outline>
		<contour>
			<point x="560" y="-120" type="line"/>
			<point x="560" y="440" type="line"/>
			<point x="520" y="440" type="line"/>
			<point x="520" y="880" type="line"/>
			<point x="480" y="880" type="line"/>
			<point x="480" y="440" type="line"/>
			<point x="0" y="440" type="line"/>
			<point x="0" y="320" type="line"/>
			<point x="440" y="320" type="line"/>
			<point x="440" y="-120" type="line"/>
		</contour>
	</outline>
</glyph>
<glyph name="cid01137" format="1" >
	<advance width="1000"/>
	<outline>
		<contour>
			<point x="440" y="320" type="line"/>
			<point x="1000" y="320" type="line"/>
			<point x="1000" y="440" type="line"/>
			<point x="560" y="440" type="line"/>
			<point x="560" y="880" type="line"/>
			<point x="440" y="880" type="line"/>
			<point x="440" y="400" type="line"/>
			<point x="0" y="400" type="line"/>
			<point x="0" y="360" type="line"/>
			<point x="440" y="360" type="line"/>
		</contour>
	</outline>
</glyph>
<glyph name="cid01147" format="1" >
	<advance width="1000"/>
	<outline>
		<contour>
			<point x="1000" y="320" type="line"/>
			<point x="1000" y="440" type="line"/>
			<point x="560" y="440" type="line"/>
			<point x="560" y="880" type="line"/>
			<point x="440" y="880" type="line"/>
			<point x="440" y="400" type="line"/>
			<point x="0" y="400" type="line"/>
			<point x="0" y="360" type="line"/>
			<point x="440" y="360" type="line"/>
			<point x="440" y="320" type="line"/>
			<point x="480" y="320" type="line"/>
			<point x="480" y="-120" type="line"/>
			<point x="520" y="-120" type="line"/>
			<point x="520" y="320" type="line"/>
		</contour>
	</outline>
</glyph>
<glyph name="cid01152" format="1" >
	<advance width="1000"/>
	<outline>
		<contour>
			<point x="1000" y="360" type="line"/>
			<point x="1000" y="400" type="line"/>
			<point x="560" y="400" type="line"/>
			<point x="560" y="880" type="line"/>
			<point x="440" y="880" type="line"/>
			<point x="440" y="440" type="line"/>
			<point x="0" y="440" type="line"/>
			<point x="0" y="320" type="line"/>
			<point x="440" y="320" type="line"/>
			<point x="440" y="-120" type="line"/>
			<point x="560" y="-120" type="line"/>
			<point x="560" y="360" type="line"/>
		</contour>
	</outline>
</glyph>
<glyph name="cid01154" format="1" >
	<advance width="1000"/>
	<outline>
		<contour>
			<point x="1000" y="320" type="line"/>
			<point x="1000" y="440" type="line"/>
			<point x="560" y="440" type="line"/>
			<point x="560" y="880" type="line"/>
			<point x="440" y="880" type="line"/>
			<point x="440" y="440" type="line"/>
			<point x="0" y="440" type="line"/>
			<point x="0" y="320" type="line"/>
			<point x="440" y="320" type="line"/>
			<point x="440" y="-120" type="line"/>
			<point x="560" y="-120" type="line"/>
			<point x="560" y="320" type="line"/>
		</contour>
	</outline>
</glyph>
<glyph name="cid01155" format="1" >
	<advance width="1000"/>
	<outline>
		<contour>
			<point x="625" y="360" type="line"/>
			<point x="875" y="360" type="line"/>
			<point x="875" y="400" type="line"/>
			<point x="625" y="400" type="line"/>
		</contour>
		<contour>
			<point x="125" y="360" type="line"/>
			<point x="375" y="360" type="line"/>
			<point x="375" y="400" type="line"/>
			<point x="125" y="400" type="line"/>
		</contour>
	</outline>
</glyph>
<glyph name="cid01156" format="1" >
	<advance width="1000"/>
	<outline>
		<contour>
			<point x="625" y="320" type="line"/>
			<point x="875" y="320" type="line"/>
			<point x="875" y="440" type="line"/>
			<point x="625" y="440" type="line"/>
		</contour>
		<contour>
			<point x="125" y="320" type="line"/>
			<point x="375" y="320" type="line"/>
			<point x="375" y="440" type="line"/>
			<point x="125" y="440" type="line"/>
		</contour>
	</outline>
</glyph>
<glyph name="cid01157" format="1" >
	<advance width="1000"/>
	<outline>
		<contour>
			<point x="480" y="505" type="line"/>
			<point x="520" y="505" type="line"/>
			<point x="520" y="755" type="line"/>
			<point x="480" y="755" type="line"/>
		</contour>
		<contour>
			<point x="480" y="5" type="line"/>
			<point x="520" y="5" type="line"/>
			<point x="520" y="255" type="line"/>
			<point x="480" y="255" type="line"/>
		</contour>
	</outline>
</glyph>
<glyph name="cid01158" format="1" >
	<advance width="1000"/>
	<outline>
		<contour>
			<point x="440" y="505" type="line"/>
			<point x="560" y="505" type="line"/>
			<point x="560" y="755" type="line"/>
			<point x="440" y="755" type="line"/>
		</contour>
		<contour>
			<point x="440" y="5" type="line"/>
			<point x="560" y="5" type="line"/>
			<point x="560" y="255" type="line"/>
			<point x="440" y="255" type="line"/>
		</contour>
	</outline>
</glyph>
<glyph name="cid01160" format="1" >
	<advance width="1000"/>
	<outline>
		<contour>
			<point x="520" y="-120" type="line"/>
			<point x="560" y="-120" type="line"/>
			<point x="560" y="880" type="line"/>
			<point x="520" y="880" type="line"/>
		</contour>
		<contour>
			<point x="440" y="-120" type="line"/>
			<point x="480" y="-120" type="line"/>
			<point x="480" y="880" type="line"/>
			<point x="440" y="880" type="line"/>
		</contour>
	</outline>
</glyph>
<glyph name="cid01169" format="1" >
	<advance width="1000"/>
	<outline>
		<contour>
			<point x="520" y="400" type="line"/>
			<point x="1000" y="400" type="line"/>
			<point x="1000" y="440" type="line"/>
			<point x="560" y="440" type="line"/>
			<point x="560" y="880" type="line"/>
			<point x="520" y="880" type="line"/>
		</contour>
		<contour>
			<point x="440" y="320" type="line"/>
			<point x="1000" y="320" type="line"/>
			<point x="1000" y="360" type="line"/>
			<point x="480" y="360" type="line"/>
			<point x="480" y="880" type="line"/>
			<point x="440" y="880" type="line"/>
		</contour>
	</outline>
</glyph>
<glyph name="cid01170" format="1" >
	<advance width="1000"/>
	<outline>
		<contour>
			<point x="0" y="320" type="line"/>
			<point x="520" y="320" type="line"/>
			<point x="520" y="880" type="line"/>
			<point x="480" y="880" type="line"/>
			<point x="480" y="440" type="line"/>
			<point x="0" y="440" type="line"/>
			<point x="0" y="400" type="line"/>
			<point x="480" y="400" type="line"/>
			<point x="480" y="360" type="line"/>
			<point x="0" y="360" type="line"/>
		</contour>
	</outline>
</glyph>
<glyph name="cid01188" format="1" >
	<advance width="1000"/>
	<outline>
		<contour>
			<point x="520" y="-120" type="line"/>
			<point x="520" y="145" />
			<point x="735" y="360" />
			<point x="1000" y="360" type="curve"/>
			<point x="1000" y="400" type="line"/>
			<point x="713" y="400" />
			<point x="480" y="167" />
			<point x="480" y="-120" type="curve"/>
		</contour>
	</outline>
</glyph>
<glyph name="cid01189" format="1" >
	<advance width="1000"/>
	<outline>
		<contour>
			<point x="480" y="-120" type="curve"/>
			<point x="520" y="-120" type="line"/>
			<point x="520" y="167" />
			<point x="287" y="400" />
			<point x="0" y="400" type="curve"/>
			<point x="0" y="360" type="line"/>
			<point x="265" y="360" />
			<point x="480" y="145" />
		</contour>
	</outline>
</glyph>
<glyph name="cid01190" format="1" >
	<advance width="1000"/>
	<outline>
		<contour>
			<point x="0" y="360" type="line"/>
			<point x="287" y="360" />
			<point x="520" y="593" />
			<point x="520" y="880" type="curve"/>
			<point x="480" y="880" type="line"/>
			<point x="480" y="615" />
			<point x="265" y="400" />
			<point x="0" y="400" type="curve"/>
		</contour>
	</outline>
</glyph>
<glyph name="cid01191" format="1" >
	<advance width="1000"/>
	<outline>
		<contour>
			<point x="1000" y="360" type="curve"/>
			<point x="1000" y="400" type="line"/>
			<point x="735" y="400" />
			<point x="520" y="615" />
			<point x="520" y="880" type="curve"/>
			<point x="480" y="880" type="line"/>
			<point x="480" y="593" />
			<point x="713" y="360" />
		</contour>
	</outline>
</glyph>
<glyph name="cid01192" format="1" >
	<advance width="1000"/>
	<outline>
		<contour>
			<point x="0" y="-92" type="line"/>
			<point x="0" y="-120" type="line"/>
			<point x="28" y="-120" type="line"/>
			<point x="1000" y="852" type="line"/>
			<point x="1000" y="880" type="line"/>
			<point x="972" y="880" type="line"/>
		</contour>
	</outline>
</glyph>
<glyph name="cid01193" format="1" >
	<advance width="1000"/>
	<outline>
		<contour>
			<point x="28" y="880" type="line"/>
			<point x="0" y="880" type="line"/>
			<point x="0" y="852" type="line"/>
			<point x="972" y="-120" type="line"/>
			<point x="1000" y="-120" type="line"/>
			<point x="1000" y="-92" type="line"/>
		</contour>
	</outline>
</glyph>
<glyph name="cid01194" format="1" >
	<advance width="1000"/>
	<outline>
		<contour>
			<point x="972" y="-120" type="line"/>
			<point x="1000" y="-120" type="line"/>
			<point x="1000" y="-92" type="line"/>
			<point x="528" y="380" type="line"/>
			<point x="1000" y="852" type="line"/>
			<point x="1000" y="880" type="line"/>
			<point x="972" y="880" type="line"/>
			<point x="500" y="408" type="line"/>
			<point x="28" y="880" type="line"/>
			<point x="0" y="880" type="line"/>
			<point x="0" y="852" type="line"/>
			<point x="472" y="380" type="line"/>
			<point x="0" y="-92" type="line"/>
			<point x="0" y="-120" type="line"/>
			<point x="28" y="-120" type="line"/>
			<point x="500" y="352" type="line"/>
		</contour>
	</outline>
</glyph>
<glyph name="cid01197" format="1" >
	<advance width="1000"/>
	<outline>
		<contour>
			<point x="480" y="360" type="line"/>
			<point x="1000" y="360" type="line"/>
			<point x="1000" y="400" type="line"/>
			<point x="480" y="400" type="line"/>
		</contour>
	</outline>
</glyph>
<glyph name="cid01199" format="1" >
	<advance width="1000"/>
	<outline>
		<contour>
			<point x="0" y="320" type="line"/>
			<point x="520" y="320" type="line"/>
			<point x="520" y="440" type="line"/>
			<point x="0" y="440" type="line"/>
		</contour>
	</outline>
</glyph>
<glyph name="cid01206" format="1" >
	<advance width="1000"/>
	<outline>
		<contour>
			<point x="560" y="360" type="line"/>
			<point x="560" y="880" type="line"/>
			<point x="440" y="880" type="line"/>
			<point x="440" y="360" type="line"/>
			<point x="480" y="360" type="line"/>
			<point x="480" y="-120" type="line"/>
			<point x="520" y="-120" type="line"/>
			<point x="520" y="360" type="line"/>
		</contour>
	</outline>
</glyph>
<glyph name="cid01207" format="1" >
	<advance width="1000"/>
	<outline>
		<contour>
			<point x="0" y="380" type="line"/>
			<point x="1000" y="380" type="line"/>
			<point x="1000" y="880" type="line"/>
			<point x="0" y="880" type="line"/>
		</contour>
	</outline>
</glyph>
<glyph name="cid01214" format="1" >
	<advance width="1000"/>
	<outline>
		<contour>
			<point x="0" y="-120" type="line"/>
			<point x="1000" y="-120" type="line"/>
			<point x="1000" y="755" type="line"/>
			<point x="0" y="755" type="line"/>
		</contour>
	</outline>
</glyph>
<glyph name="cid01220" format="1" >
	<advance width="1000"/>
	<outline>
		<contour>
			<point x="0" y="-120" type="line"/>
			<point x="375" y="-120" type="line"/>
			<point x="375" y="880" type="line"/>
			<point x="0" y="880" type="line"/>
		</contour>
	</outline>
</glyph>
<glyph name="cid01221" format="1" >
	<advance width="1000"/>
	<outline>
		<contour>
			<point x="0" y="-120" type="line"/>
			<point x="250" y="-120" type="line"/>
			<point x="250" y="880" type="line"/>
			<point x="0" y="880" type="line"/>
		</contour>
	</outline>
</glyph>
<glyph name="cid01224" format="1" >
	<advance width="1000"/>
	<outline>
		<contour>
			<point x="1000" y="380" type="line"/>
			<point x="1000" y="430" type="line"/>
			<point x="550" y="880" type="line"/>
			<point x="500" y="880" type="line"/>
		</contour>
		<contour>
			<point x="1000" y="-120" type="line"/>
			<point x="1000" y="-70" type="line"/>
			<point x="50" y="880" type="line"/>
			<point x="0" y="880" type="line"/>
		</contour>
		<contour>
			<point x="500" y="-120" type="line"/>
			<point x="550" y="-120" type="line"/>
			<point x="0" y="430" type="line"/>
			<point x="0" y="380" type="line"/>
		</contour>
		<contour>
			<point x="0" y="-120" type="line"/>
			<point x="50" y="-120" type="line"/>
			<point x="0" y="-70" type="line"/>
		</contour>
	</outline>
</glyph>
<glyph name="cid01225" format="1" >
	<advance width="1000"/>
	<outline>
		<contour>
			<point x="1000" y="630" type="line"/>
			<point x="1000" y="680" type="line"/>
			<point x="800" y="880" type="line"/>
			<point x="750" y="880" type="line"/>
		</contour>
		<contour>
			<point x="1000" y="380" type="line"/>
			<point x="1000" y="430" type="line"/>
			<point x="550" y="880" type="line"/>
			<point x="500" y="880" type="line"/>
		</contour>
		<contour>
			<point x="1000" y="130" type="line"/>
			<point x="1000" y="180" type="line"/>
			<point x="300" y="880" type="line"/>
			<point x="250" y="880" type="line"/>
		</contour>
		<contour>
			<point x="1000" y="-120" type="line"/>
			<point x="1000" y="-70" type="line"/>
			<point x="50" y="880" type="line"/>
			<point x="0" y="880" type="line"/>
		</contour>
		<contour>
			<point x="750" y="-120" type="line"/>
			<point x="800" y="-120" type="line"/>
			<point x="0" y="680" type="line"/>
			<point x="0" y="630" type="line"/>
		</contour>
		<contour>
			<point x="500" y="-120" type="line"/>
			<point x="550" y="-120" type="line"/>
			<point x="0" y="430" type="line"/>
			<point x="0" y="380" type="line"/>
		</contour>
		<contour>
			<point x="250" y="-120" type="line"/>
			<point x="300" y="-120" type="line"/>
			<point x="0" y="180" type="line"/>
			<point x="0" y="130" type="line"/>
		</contour>
		<contour>
			<point x="0" y="-120" type="line"/>
			<point x="50" y="-120" type="line"/>
			<point x="0" y="-70" type="line"/>
		</contour>
	</outline>
</glyph>
<glyph name="cid01229" format="1" >
	<advance width="1000"/>
	<outline>
		<contour>
			<point x="0" y="-120" type="line"/>
			<point x="500" y="-120" type="line"/>
			<point x="500" y="380" type="line"/>
			<point x="0" y="380" type="line"/>
		</contour>
	</outline>
</glyph>
<glyph name="cid01236" format="1" >
	<advance width="1000"/>
	<outline>
		<contour>
			<point x="500" y="380" type="line"/>
			<point x="1000" y="380" type="line"/>
			<point x="1000" y="880" type="line"/>
			<point x="500" y="880" type="line"/>
		</contour>
	</outline>
</glyph>
<glyph name="cid01237" format="1" >
	<advance width="1000"/>
	<outline>
		<contour>
			<point x="500" y="380" type="line"/>
			<point x="1000" y="380" type="line"/>
			<point x="1000" y="880" type="line"/>
			<point x="500" y="880" type="line"/>
		</contour>
		<contour>
			<point x="0" y="-120" type="line"/>
			<point x="500" y="-120" type="line"/>
			<point x="500" y="380" type="line"/>
			<point x="0" y="380" type="line"/>
		</contour>
	</outline>
</glyph>
<glyph name="cid01287" format="1" >
	<advance width="1000"/>
	<outline>
		<contour>
			<point x="242" y="556" type="line"/>
			<point x="315" y="556" type="line"/>
			<point x="315" y="506" type="line"/>
			<point x="315" y="441" />
			<point x="274" y="394" />
			<point x="200" y="322" type="curve"/>
			<point x="129" y="252" />
			<point x="104" y="164" />
			<point x="104" y="74" type="curve"/>
			<point x="104" y="37" />
			<point x="123" y="13" />
			<point x="164" y="13" type="curve"/>
			<point x="836" y="13" type="line"/>
			<point x="877" y="13" />
			<point x="896" y="37" />
			<point x="896" y="74" type="curve"/>
			<point x="896" y="164" />
			<point x="871" y="252" />
			<point x="800" y="322" type="curve"/>
			<point x="726" y="394" />
			<point x="685" y="441" />
			<point x="685" y="506" type="curve"/>
			<point x="685" y="556" type="line"/>
			<point x="758" y="556" type="line"/>
			<point x="724" y="469" type="line"/>
			<point x="724" y="470" type="line"/>
			<point x="716" y="451" />
			<point x="716" y="420" />
			<point x="747" y="413" type="curve"/>
			<point x="930" y="382" type="line"/>
			<point x="955" y="379" />
			<point x="974" y="398" />
			<point x="974" y="424" type="curve"/>
			<point x="974" y="468" />
			<point x="968" y="571" />
			<point x="915" y="612" type="curve"/>
			<point x="829" y="679" />
			<point x="714" y="715" />
			<point x="500" y="715" type="curve"/>
			<point x="286" y="715" />
			<point x="171" y="679" />
			<point x="85" y="612" type="curve"/>
			<point x="32" y="571" />
			<point x="26" y="468" />
			<point x="26" y="424" type="curve"/>
			<point x="26" y="398" />
			<point x="45" y="379" />
			<point x="70" y="382" type="curve"/>
			<point x="252" y="413" type="line"/>
			<point x="284" y="420" />
			<point x="284" y="451" />
			<point x="276" y="470" type="curve"/>
			<point x="276" y="469" type="line"/>
		</contour>
		<contour>
			<point x="202" y="584" type="line"/>
			<point x="250" y="459" type="line"/>
			<point x="250" y="458" type="line"/>
			<point x="255" y="447" />
			<point x="254" y="442" />
			<point x="247" y="441" type="curve"/>
			<point x="66" y="410" type="line"/>
			<point x="57" y="409" />
			<point x="54" y="412" />
			<point x="54" y="424" type="curve"/>
			<point x="54" y="468" />
			<point x="60" y="557" />
			<point x="103" y="590" type="curve"/>
			<point x="185" y="653" />
			<point x="290" y="687" />
			<point x="500" y="687" type="curve"/>
			<point x="710" y="687" />
			<point x="815" y="653" />
			<point x="897" y="590" type="curve"/>
			<point x="940" y="557" />
			<point x="946" y="468" />
			<point x="946" y="424" type="curve"/>
			<point x="946" y="412" />
			<point x="943" y="409" />
			<point x="934" y="410" type="curve"/>
			<point x="752" y="441" type="line"/>
			<point x="746" y="442" />
			<point x="745" y="447" />
			<point x="750" y="458" type="curve"/>
			<point x="750" y="459" type="line"/>
			<point x="798" y="584" type="line"/>
			<point x="657" y="584" type="line"/>
			<point x="657" y="506" type="line"/>
			<point x="657" y="431" />
			<point x="706" y="374" />
			<point x="780" y="302" type="curve"/>
			<point x="847" y="238" />
			<point x="868" y="160" />
			<point x="868" y="74" type="curve"/>
			<point x="868" y="49" />
			<point x="861" y="41" />
			<point x="836" y="41" type="curve"/>
			<point x="164" y="41" type="line"/>
			<point x="139" y="41" />
			<point x="132" y="49" />
			<point x="132" y="74" type="curve"/>
			<point x="132" y="160" />
			<point x="153" y="238" />
			<point x="220" y="302" type="curve"/>
			<point x="294" y="374" />
			<point x="343" y="431" />
			<point x="343" y="506" type="curve"/>
			<point x="343" y="584" type="line"/>
		</contour>
		<contour>
			<point x="429" y="556" type="line"/>
			<point x="571" y="556" type="line"/>
			<point x="571" y="488" type="line"/>
			<point x="429" y="488" type="line"/>
		</contour>
		<contour>
			<point x="401" y="584" type="line"/>
			<point x="401" y="460" type="line"/>
			<point x="599" y="460" type="line"/>
			<point x="599" y="584" type="line"/>
		</contour>
		<contour>
			<point x="500" y="96" type="curve"/>
			<point x="415" y="96" />
			<point x="346" y="165" />
			<point x="346" y="250" type="curve"/>
			<point x="346" y="335" />
			<point x="415" y="404" />
			<point x="500" y="404" type="curve"/>
			<point x="585" y="404" />
			<point x="654" y="335" />
			<point x="654" y="250" type="curve"/>
			<point x="654" y="165" />
			<point x="585" y="96" />
		</contour>
		<contour>
			<point x="500" y="68" type="curve"/>
			<point x="599" y="68" />
			<point x="682" y="151" />
			<point x="682" y="250" type="curve"/>
			<point x="682" y="349" />
			<point x="599" y="432" />
			<point x="500" y="432" type="curve"/>
			<point x="401" y="432" />
			<point x="318" y="349" />
			<point x="318" y="250" type="curve"/>
			<point x="318" y="151" />
			<point x="401" y="68" />
		</contour>
	</outline>
</glyph>
<glyph name="cid01294" format="1" >
	<advance width="1000"/>
	<outline>
		<contour>
			<point x="500" y="-88" type="curve"/>
			<point x="759" y="-88" />
			<point x="968" y="122" />
			<point x="968" y="380" type="curve"/>
			<point x="968" y="638" />
			<point x="759" y="848" />
			<point x="500" y="848" type="curve"/>
			<point x="242" y="848" />
			<point x="32" y="638" />
			<point x="32" y="380" type="curve"/>
			<point x="32" y="122" />
			<point x="242" y="-88" />
		</contour>
		<contour>
			<point x="500" y="554" type="curve"/>
			<point x="474" y="554" />
			<point x="453" y="575" />
			<point x="453" y="601" type="curve"/>
			<point x="453" y="626" />
			<point x="474" y="648" />
			<point x="500" y="648" type="curve"/>
			<point x="525" y="648" />
			<point x="547" y="626" />
			<point x="547" y="601" type="curve"/>
			<point x="547" y="575" />
			<point x="525" y="554" />
		</contour>
		<contour>
			<point x="501" y="822" type="curve"/>
			<point x="744" y="822" />
			<point x="942" y="624" />
			<point x="942" y="380" type="curve"/>
			<point x="942" y="136" />
			<point x="744" y="-62" />
			<point x="500" y="-62" type="curve"/>
			<point x="378" y="-62" />
			<point x="279" y="37" />
			<point x="279" y="159" type="curve"/>
			<point x="279" y="281" />
			<point x="378" y="380" />
			<point x="500" y="380" type="curve"/>
			<point x="622" y="380" />
			<point x="721" y="479" />
			<point x="721" y="601" type="curve"/>
			<point x="721" y="723" />
			<point x="622" y="822" />
		</contour>
		<contour>
			<point x="500" y="112" type="curve"/>
			<point x="525" y="112" />
			<point x="547" y="133" />
			<point x="547" y="159" type="curve"/>
			<point x="547" y="184" />
			<point x="525" y="206" />
			<point x="500" y="206" type="curve"/>
			<point x="474" y="206" />
			<point x="453" y="184" />
			<point x="453" y="159" type="curve"/>
			<point x="453" y="133" />
			<point x="474" y="112" />
		</contour>
	</outline>
</glyph>
<glyph name="cid58964" format="1" >
	<advance width="1000"/>
	<outline>
		<contour>
			<point x="500" y="-17" type="curve"/>
			<point x="636" y="-17" />
			<point x="765" y="97" />
			<point x="765" y="373" type="curve"/>
			<point x="765" y="650" />
			<point x="636" y="763" />
			<point x="500" y="763" type="curve"/>
			<point x="363" y="763" />
			<point x="235" y="650" />
			<point x="235" y="373" type="curve"/>
			<point x="235" y="97" />
			<point x="363" y="-17" />
		</contour>
		<contour>
			<point x="500" y="14" type="curve"/>
			<point x="402" y="14" />
			<point x="303" y="108" />
			<point x="303" y="373" type="curve"/>
			<point x="303" y="637" />
			<point x="402" y="732" />
			<point x="500" y="732" type="curve"/>
			<point x="598" y="732" />
			<point x="697" y="636" />
			<point x="697" y="373" type="curve"/>
			<point x="697" y="109" />
			<point x="598" y="14" />
		</contour>
	</outline>
</glyph>
<glyph name="cid58965" format="1" >
	<advance width="1000"/>
	<outline>
		<contour>
			<point x="475" y="0" type="line"/>
			<point x="719" y="0" type="line"/>
			<point x="719" y="30" type="line"/>
			<point x="544" y="38" type="line"/>
			<point x="542" y="107" />
			<point x="541" y="175" />
			<point x="541" y="244" type="curve"/>
			<point x="541" y="579" type="line"/>
			<point x="546" y="747" type="line"/>
			<point x="530" y="762" type="line"/>
			<point x="318" y="702" type="line"/>
			<point x="318" y="671" type="line"/>
			<point x="478" y="706" type="line"/>
			<point x="478" y="244" type="line"/>
			<point x="478" y="175" />
			<point x="477" y="107" />
			<point x="476" y="38" type="curve"/>
			<point x="291" y="30" type="line"/>
			<point x="291" y="0" type="line"/>
		</contour>
	</outline>
</glyph>
<glyph name="cid58966" format="1" >
	<advance width="1000"/>
	<outline>
		<contour>
			<point x="269" y="0" type="line"/>
			<point x="750" y="0" type="line"/>
			<point x="750" y="53" type="line"/>
			<point x="325" y="53" type="line"/>
			<point x="631" y="368" />
			<point x="705" y="448" />
			<point x="705" y="565" type="curve"/>
			<point x="705" y="687" />
			<point x="632" y="763" />
			<point x="490" y="763" type="curve"/>
			<point x="394" y="763" />
			<point x="311" y="725" />
			<point x="282" y="635" type="curve"/>
			<point x="288" y="617" />
			<point x="301" y="608" />
			<point x="317" y="608" type="curve"/>
			<point x="342" y="608" />
			<point x="354" y="616" />
			<point x="380" y="710" type="curve"/>
			<point x="413" y="727" />
			<point x="444" y="732" />
			<point x="479" y="732" type="curve"/>
			<point x="584" y="732" />
			<point x="638" y="661" />
			<point x="638" y="571" type="curve"/>
			<point x="638" y="447" />
			<point x="574" y="369" />
			<point x="269" y="39" type="curve"/>
		</contour>
	</outline>
</glyph>
<glyph name="cid58967" format="1" >
	<advance width="1000"/>
	<outline>
		<contour>
			<point x="495" y="-17" type="curve"/>
			<point x="637" y="-17" />
			<point x="740" y="60" />
			<point x="740" y="188" type="curve"/>
			<point x="740" y="303" />
			<point x="675" y="378" />
			<point x="551" y="392" type="curve"/>
			<point x="660" y="415" />
			<point x="718" y="497" />
			<point x="718" y="585" type="curve"/>
			<point x="718" y="688" />
			<point x="640" y="763" />
			<point x="509" y="763" type="curve"/>
			<point x="413" y="763" />
			<point x="312" y="726" />
			<point x="292" y="627" type="curve"/>
			<point x="295" y="615" />
			<point x="307" y="606" />
			<point x="321" y="606" type="curve"/>
			<point x="346" y="606" />
			<point x="361" y="612" />
			<point x="389" y="710" type="curve"/>
			<point x="424" y="727" />
			<point x="456" y="732" />
			<point x="496" y="732" type="curve"/>
			<point x="595" y="732" />
			<point x="651" y="673" />
			<point x="651" y="582" type="curve"/>
			<point x="651" y="466" />
			<point x="572" y="404" />
			<point x="471" y="404" type="curve"/>
			<point x="419" y="404" type="line"/>
			<point x="419" y="374" type="line"/>
			<point x="472" y="374" type="line"/>
			<point x="605" y="374" />
			<point x="672" y="311" />
			<point x="672" y="190" type="curve"/>
			<point x="672" y="84" />
			<point x="602" y="14" />
			<point x="482" y="14" type="curve"/>
			<point x="426" y="14" />
			<point x="394" y="21" />
			<point x="362" y="40" type="curve"/>
			<point x="344" y="132" />
			<point x="326" y="144" />
			<point x="302" y="144" type="curve"/>
			<point x="284" y="144" />
			<point x="271" y="134" />
			<point x="269" y="116" type="curve"/>
			<point x="293" y="30" />
			<point x="376" y="-17" />
		</contour>
	</outline>
</glyph>
<glyph name="cid58968" format="1" >
	<advance width="1000"/>
	<outline>
		<contour>
			<point x="583" y="0" type="line"/>
			<point x="641" y="0" type="line"/>
			<point x="641" y="231" type="line"/>
			<point x="791" y="231" type="line"/>
			<point x="791" y="282" type="line"/>
			<point x="641" y="282" type="line"/>
			<point x="641" y="756" type="line"/>
			<point x="599" y="756" type="line"/>
			<point x="223" y="272" type="line"/>
			<point x="223" y="231" type="line"/>
			<point x="583" y="231" type="line"/>
		</contour>
		<contour>
			<point x="267" y="282" type="line"/>
			<point x="583" y="687" type="line"/>
			<point x="583" y="282" type="line"/>
		</contour>
	</outline>
</glyph>
<glyph name="cid58969" format="1" >
	<advance width="1000"/>
	<outline>
		<contour>
			<point x="491" y="-17" type="curve"/>
			<point x="656" y="-17" />
			<point x="757" y="85" />
			<point x="757" y="235" type="curve"/>
			<point x="757" y="376" />
			<point x="668" y="468" />
			<point x="514" y="468" type="curve"/>
			<point x="450" y="468" />
			<point x="398" y="451" />
			<point x="352" y="424" type="curve"/>
			<point x="372" y="692" type="line"/>
			<point x="733" y="692" type="line"/>
			<point x="733" y="747" type="line"/>
			<point x="343" y="747" type="line"/>
			<point x="315" y="387" type="line"/>
			<point x="337" y="383" type="line"/>
			<point x="390" y="417" />
			<point x="438" y="432" />
			<point x="495" y="432" type="curve"/>
			<point x="610" y="432" />
			<point x="688" y="364" />
			<point x="688" y="229" type="curve"/>
			<point x="688" y="96" />
			<point x="614" y="14" />
			<point x="489" y="14" type="curve"/>
			<point x="434" y="14" />
			<point x="392" y="24" />
			<point x="354" y="43" type="curve"/>
			<point x="328" y="135" />
			<point x="318" y="144" />
			<point x="294" y="144" type="curve"/>
			<point x="279" y="144" />
			<point x="267" y="136" />
			<point x="262" y="121" type="curve"/>
			<point x="282" y="31" />
			<point x="371" y="-17" />
		</contour>
	</outline>
</glyph>
<glyph name="cid58970" format="1" >
	<advance width="1000"/>
	<outline>
		<contour>
			<point x="498" y="-17" type="curve"/>
			<point x="632" y="-17" />
			<point x="738" y="83" />
			<point x="738" y="231" type="curve"/>
			<point x="738" y="367" />
			<point x="656" y="453" />
			<point x="523" y="453" type="curve"/>
			<point x="444" y="453" />
			<point x="380" y="426" />
			<point x="325" y="362" type="curve"/>
			<point x="356" y="543" />
			<point x="491" y="693" />
			<point x="725" y="736" type="curve"/>
			<point x="721" y="763" type="line"/>
			<point x="426" y="727" />
			<point x="249" y="508" />
			<point x="249" y="281" type="curve"/>
			<point x="249" y="103" />
			<point x="341" y="-17" />
		</contour>
		<contour>
			<point x="320" y="325" type="curve"/>
			<point x="378" y="394" />
			<point x="438" y="419" />
			<point x="503" y="419" type="curve"/>
			<point x="605" y="419" />
			<point x="671" y="347" />
			<point x="671" y="226" type="curve"/>
			<point x="671" y="94" />
			<point x="592" y="14" />
			<point x="499" y="14" type="curve"/>
			<point x="382" y="14" />
			<point x="318" y="128" />
			<point x="318" y="278" type="curve"/>
			<point x="318" y="294" />
			<point x="319" y="309" />
		</contour>
	</outline>
</glyph>
<glyph name="cid58971" format="1" >
	<advance width="1000"/>
	<outline>
		<contour>
			<point x="378" y="0" type="line"/>
			<point x="436" y="0" type="line"/>
			<point x="742" y="709" type="line"/>
			<point x="742" y="746" type="line"/>
			<point x="252" y="746" type="line"/>
			<point x="252" y="692" type="line"/>
			<point x="699" y="692" type="line"/>
			<point x="373" y="5" type="line"/>
		</contour>
	</outline>
</glyph>
<glyph name="cid58972" format="1" >
	<advance width="1000"/>
	<outline>
		<contour>
			<point x="495" y="-17" type="curve"/>
			<point x="654" y="-17" />
			<point x="746" y="57" />
			<point x="746" y="175" type="curve"/>
			<point x="746" y="270" />
			<point x="695" y="335" />
			<point x="537" y="394" type="curve"/>
			<point x="659" y="445" />
			<point x="713" y="510" />
			<point x="713" y="592" type="curve"/>
			<point x="713" y="696" />
			<point x="632" y="763" />
			<point x="502" y="763" type="curve"/>
			<point x="375" y="763" />
			<point x="278" y="690" />
			<point x="278" y="574" type="curve"/>
			<point x="278" y="490" />
			<point x="328" y="420" />
			<point x="448" y="370" type="curve"/>
			<point x="319" y="319" />
			<point x="255" y="253" />
			<point x="255" y="158" type="curve"/>
			<point x="255" y="51" />
			<point x="341" y="-17" />
		</contour>
		<contour>
			<point x="509" y="405" type="curve"/>
			<point x="380" y="456" />
			<point x="334" y="515" />
			<point x="334" y="586" type="curve"/>
			<point x="334" y="675" />
			<point x="408" y="732" />
			<point x="501" y="732" type="curve"/>
			<point x="597" y="732" />
			<point x="657" y="675" />
			<point x="657" y="589" type="curve"/>
			<point x="657" y="510" />
			<point x="614" y="463" />
		</contour>
		<contour>
			<point x="477" y="359" type="curve"/>
			<point x="640" y="298" />
			<point x="687" y="247" />
			<point x="687" y="165" type="curve"/>
			<point x="687" y="71" />
			<point x="617" y="14" />
			<point x="500" y="14" type="curve"/>
			<point x="379" y="14" />
			<point x="311" y="68" />
			<point x="311" y="163" type="curve"/>
			<point x="311" y="245" />
			<point x="356" y="298" />
		</contour>
	</outline>
</glyph>
<glyph name="cid58973" format="1" >
	<advance width="1000"/>
	<outline>
		<contour>
			<point x="321" y="-17" type="line"/>
			<point x="591" y="64" />
			<point x="751" y="239" />
			<point x="751" y="458" type="curve"/>
			<point x="751" y="647" />
			<point x="655" y="763" />
			<point x="501" y="763" type="curve"/>
			<point x="372" y="763" />
			<point x="263" y="674" />
			<point x="261" y="537" type="curve"/>
			<point x="260" y="396" />
			<point x="349" y="303" />
			<point x="490" y="303" type="curve"/>
			<point x="567" y="303" />
			<point x="632" y="331" />
			<point x="674" y="378" type="curve"/>
			<point x="643" y="216" />
			<point x="518" y="86" />
			<point x="313" y="11" type="curve"/>
		</contour>
		<contour>
			<point x="679" y="413" type="curve"/>
			<point x="637" y="362" />
			<point x="573" y="336" />
			<point x="511" y="336" type="curve"/>
			<point x="397" y="336" />
			<point x="329" y="416" />
			<point x="329" y="537" type="curve"/>
			<point x="329" y="661" />
			<point x="408" y="732" />
			<point x="499" y="732" type="curve"/>
			<point x="606" y="732" />
			<point x="682" y="645" />
			<point x="682" y="462" type="curve"/>
			<point x="682" y="445" />
			<point x="681" y="429" />
		</contour>
	</outline>
</glyph>
<glyph name="cid58981" format="1" >
	<advance width="1000"/>
	<outline>
		<contour>
			<point x="480" y="677" type="line"/>
			<point x="631" y="293" type="line"/>
			<point x="338" y="293" type="line"/>
		</contour>
		<contour>
			<point x="620" y="0" type="line"/>
			<point x="909" y="0" type="line"/>
			<point x="909" y="31" type="line"/>
			<point x="799" y="39" type="line"/>
			<point x="517" y="746" type="line"/>
			<point x="472" y="746" type="line"/>
			<point x="203" y="39" type="line"/>
			<point x="93" y="31" type="line"/>
			<point x="93" y="0" type="line"/>
			<point x="353" y="0" type="line"/>
			<point x="353" y="31" type="line"/>
			<point x="243" y="39" type="line"/>
			<point x="325" y="259" type="line"/>
			<point x="644" y="259" type="line"/>
			<point x="731" y="39" type="line"/>
			<point x="620" y="31" type="line"/>
		</contour>
	</outline>
</glyph>
<glyph name="cid58982" format="1" >
	<advance width="1000"/>
	<outline>
		<contour>
			<point x="197" y="715" type="line"/>
			<point x="313" y="708" type="line"/>
			<point x="314" y="607" />
			<point x="314" y="504" />
			<point x="314" y="402" type="curve"/>
			<point x="314" y="344" type="line"/>
			<point x="314" y="242" />
			<point x="314" y="140" />
			<point x="313" y="39" type="curve"/>
			<point x="197" y="31" type="line"/>
			<point x="197" y="0" type="line"/>
			<point x="549" y="0" type="line"/>
			<point x="764" y="0" />
			<point x="840" y="91" />
			<point x="840" y="200" type="curve"/>
			<point x="840" y="302" />
			<point x="776" y="380" />
			<point x="622" y="394" type="curve"/>
			<point x="746" y="418" />
			<point x="801" y="492" />
			<point x="801" y="572" type="curve"/>
			<point x="801" y="675" />
			<point x="732" y="746" />
			<point x="544" y="746" type="curve"/>
			<point x="197" y="746" type="line"/>
		</contour>
		<contour>
			<point x="378" y="373" type="curve"/>
			<point x="539" y="373" type="line"/>
			<point x="704" y="373" />
			<point x="776" y="311" />
			<point x="776" y="202" type="curve"/>
			<point x="776" y="93" />
			<point x="701" y="33" />
			<point x="554" y="33" type="curve"/>
			<point x="380" y="33" type="line"/>
			<point x="378" y="142" />
			<point x="378" y="240" />
		</contour>
		<contour>
			<point x="379" y="712" type="curve"/>
			<point x="528" y="712" type="line"/>
			<point x="693" y="712" />
			<point x="738" y="654" />
			<point x="738" y="571" type="curve"/>
			<point x="738" y="472" />
			<point x="663" y="405" />
			<point x="525" y="405" type="curve"/>
			<point x="378" y="405" type="line"/>
			<point x="378" y="512" />
			<point x="378" y="612" />
		</contour>
	</outline>
</glyph>
<glyph name="cid58983" format="1" >
	<advance width="1000"/>
	<outline>
		<contour>
			<point x="572" y="-17" type="curve"/>
			<point x="655" y="-17" />
			<point x="729" y="-3" />
			<point x="805" y="44" type="curve"/>
			<point x="810" y="207" type="line"/>
			<point x="771" y="207" type="line"/>
			<point x="750" y="58" type="line"/>
			<point x="697" y="29" />
			<point x="643" y="17" />
			<point x="572" y="17" type="curve"/>
			<point x="375" y="17" />
			<point x="242" y="149" />
			<point x="242" y="373" type="curve"/>
			<point x="242" y="594" />
			<point x="368" y="729" />
			<point x="575" y="729" type="curve"/>
			<point x="643" y="729" />
			<point x="687" y="719" />
			<point x="740" y="690" type="curve"/>
			<point x="760" y="546" type="line"/>
			<point x="799" y="546" type="line"/>
			<point x="795" y="705" type="line"/>
			<point x="724" y="746" />
			<point x="662" y="763" />
			<point x="571" y="763" type="curve"/>
			<point x="331" y="763" />
			<point x="174" y="610" />
			<point x="174" y="373" type="curve"/>
			<point x="174" y="134" />
			<point x="332" y="-17" />
		</contour>
	</outline>
</glyph>
<glyph name="cid58984" format="1" >
	<advance width="1000"/>
	<outline>
		<contour>
			<point x="175" y="715" type="line"/>
			<point x="291" y="708" type="line"/>
			<point x="292" y="607" />
			<point x="292" y="504" />
			<point x="292" y="403" type="curve"/>
			<point x="292" y="344" type="line"/>
			<point x="292" y="242" />
			<point x="292" y="140" />
			<point x="291" y="39" type="curve"/>
			<point x="175" y="31" type="line"/>
			<point x="175" y="0" type="line"/>
			<point x="460" y="0" type="line"/>
			<point x="708" y="0" />
			<point x="850" y="147" />
			<point x="850" y="373" type="curve"/>
			<point x="850" y="612" />
			<point x="708" y="746" />
			<point x="469" y="746" type="curve"/>
			<point x="175" y="746" type="line"/>
		</contour>
		<contour>
			<point x="357" y="33" type="line"/>
			<point x="356" y="136" />
			<point x="356" y="240" />
			<point x="356" y="344" type="curve"/>
			<point x="356" y="403" type="line"/>
			<point x="356" y="506" />
			<point x="356" y="611" />
			<point x="357" y="712" type="curve"/>
			<point x="456" y="712" type="line"/>
			<point x="667" y="712" />
			<point x="782" y="599" />
			<point x="782" y="373" type="curve"/>
			<point x="782" y="160" />
			<point x="670" y="33" />
			<point x="443" y="33" type="curve"/>
		</contour>
	</outline>
</glyph>
<glyph name="cid58985" format="1" >
	<advance width="1000"/>
	<outline>
		<contour>
			<point x="219" y="715" type="line"/>
			<point x="323" y="708" type="line"/>
			<point x="324" y="606" />
			<point x="324" y="504" />
			<point x="324" y="403" type="curve"/>
			<point x="324" y="344" type="line"/>
			<point x="324" y="238" />
			<point x="324" y="141" />
			<point x="323" y="39" type="curve"/>
			<point x="219" y="31" type="line"/>
			<point x="219" y="0" type="line"/>
			<point x="804" y="0" type="line"/>
			<point x="815" y="172" type="line"/>
			<point x="774" y="172" type="line"/>
			<point x="755" y="33" type="line"/>
			<point x="390" y="33" type="line"/>
			<point x="388" y="136" />
			<point x="388" y="235" />
			<point x="388" y="362" type="curve"/>
			<point x="655" y="362" type="line"/>
			<point x="666" y="259" type="line"/>
			<point x="696" y="259" type="line"/>
			<point x="696" y="498" type="line"/>
			<point x="666" y="498" type="line"/>
			<point x="655" y="395" type="line"/>
			<point x="388" y="395" type="line"/>
			<point x="388" y="511" />
			<point x="388" y="612" />
			<point x="390" y="713" type="curve"/>
			<point x="738" y="713" type="line"/>
			<point x="757" y="572" type="line"/>
			<point x="798" y="572" type="line"/>
			<point x="788" y="746" type="line"/>
			<point x="219" y="746" type="line"/>
		</contour>
	</outline>
</glyph>
<glyph name="cid58986" format="1" >
	<advance width="1000"/>
	<outline>
		<contour>
			<point x="226" y="715" type="line"/>
			<point x="331" y="708" type="line"/>
			<point x="332" y="607" />
			<point x="332" y="504" />
			<point x="332" y="403" type="curve"/>
			<point x="332" y="344" type="line"/>
			<point x="332" y="242" />
			<point x="332" y="140" />
			<point x="331" y="39" type="curve"/>
			<point x="226" y="31" type="line"/>
			<point x="226" y="0" type="line"/>
			<point x="513" y="0" type="line"/>
			<point x="513" y="31" type="line"/>
			<point x="397" y="40" type="line"/>
			<point x="396" y="136" />
			<point x="396" y="236" />
			<point x="396" y="352" type="curve"/>
			<point x="658" y="352" type="line"/>
			<point x="669" y="248" type="line"/>
			<point x="699" y="248" type="line"/>
			<point x="699" y="488" type="line"/>
			<point x="669" y="488" type="line"/>
			<point x="659" y="385" type="line"/>
			<point x="396" y="385" type="line"/>
			<point x="396" y="504" />
			<point x="396" y="611" />
			<point x="397" y="713" type="curve"/>
			<point x="751" y="713" type="line"/>
			<point x="770" y="572" type="line"/>
			<point x="811" y="572" type="line"/>
			<point x="801" y="746" type="line"/>
			<point x="226" y="746" type="line"/>
		</contour>
	</outline>
</glyph>
<glyph name="cid58987" format="1" >
	<advance width="1000"/>
	<outline>
		<contour>
			<point x="596" y="336" type="line"/>
			<point x="730" y="327" type="line"/>
			<point x="732" y="254" />
			<point x="733" y="179" />
			<point x="733" y="107" type="curve"/>
			<point x="733" y="60" type="line"/>
			<point x="675" y="28" />
			<point x="615" y="16" />
			<point x="545" y="16" type="curve"/>
			<point x="363" y="16" />
			<point x="240" y="152" />
			<point x="240" y="373" type="curve"/>
			<point x="240" y="594" />
			<point x="364" y="730" />
			<point x="550" y="730" type="curve"/>
			<point x="623" y="730" />
			<point x="676" y="718" />
			<point x="729" y="686" type="curve"/>
			<point x="750" y="543" type="line"/>
			<point x="789" y="543" type="line"/>
			<point x="785" y="700" type="line"/>
			<point x="713" y="744" />
			<point x="641" y="763" />
			<point x="543" y="763" type="curve"/>
			<point x="319" y="763" />
			<point x="170" y="607" />
			<point x="170" y="373" type="curve"/>
			<point x="170" y="139" />
			<point x="319" y="-17" />
			<point x="541" y="-17" type="curve"/>
			<point x="637" y="-17" />
			<point x="709" y="-2" />
			<point x="796" y="51" type="curve"/>
			<point x="796" y="106" type="line"/>
			<point x="796" y="194" />
			<point x="797" y="263" />
			<point x="798" y="328" type="curve"/>
			<point x="894" y="336" type="line"/>
			<point x="894" y="367" type="line"/>
			<point x="596" y="367" type="line"/>
		</contour>
	</outline>
</glyph>
<glyph name="cid58988" format="1" >
	<advance width="1000"/>
	<outline>
		<contour>
			<point x="609" y="715" type="line"/>
			<point x="725" y="708" type="line"/>
			<point x="726" y="609" />
			<point x="726" y="509" />
			<point x="726" y="410" type="curve"/>
			<point x="274" y="410" type="line"/>
			<point x="274" y="510" />
			<point x="274" y="610" />
			<point x="276" y="708" type="curve"/>
			<point x="391" y="715" type="line"/>
			<point x="391" y="746" type="line"/>
			<point x="94" y="746" type="line"/>
			<point x="94" y="715" type="line"/>
			<point x="209" y="708" type="line"/>
			<point x="210" y="607" />
			<point x="210" y="504" />
			<point x="210" y="403" type="curve"/>
			<point x="210" y="344" type="line"/>
			<point x="210" y="242" />
			<point x="210" y="140" />
			<point x="209" y="39" type="curve"/>
			<point x="94" y="31" type="line"/>
			<point x="94" y="0" type="line"/>
			<point x="391" y="0" type="line"/>
			<point x="391" y="31" type="line"/>
			<point x="276" y="39" type="line"/>
			<point x="274" y="139" />
			<point x="274" y="244" />
			<point x="274" y="376" type="curve"/>
			<point x="726" y="376" type="line"/>
			<point x="726" y="244" />
			<point x="726" y="139" />
			<point x="725" y="39" type="curve"/>
			<point x="609" y="31" type="line"/>
			<point x="609" y="0" type="line"/>
			<point x="906" y="0" type="line"/>
			<point x="906" y="31" type="line"/>
			<point x="791" y="39" type="line"/>
			<point x="790" y="140" />
			<point x="790" y="242" />
			<point x="790" y="344" type="curve"/>
			<point x="790" y="403" type="line"/>
			<point x="790" y="505" />
			<point x="790" y="608" />
			<point x="791" y="708" type="curve"/>
			<point x="906" y="715" type="line"/>
			<point x="906" y="746" type="line"/>
			<point x="609" y="746" type="line"/>
		</contour>
	</outline>
</glyph>
<glyph name="cid58989" format="1" >
	<advance width="1000"/>
	<outline>
		<contour>
			<point x="362" y="715" type="line"/>
			<point x="466" y="708" type="line"/>
			<point x="468" y="607" />
			<point x="468" y="504" />
			<point x="468" y="403" type="curve"/>
			<point x="468" y="344" type="line"/>
			<point x="468" y="242" />
			<point x="468" y="140" />
			<point x="466" y="39" type="curve"/>
			<point x="362" y="31" type="line"/>
			<point x="362" y="0" type="line"/>
			<point x="639" y="0" type="line"/>
			<point x="639" y="31" type="line"/>
			<point x="534" y="39" type="line"/>
			<point x="532" y="140" />
			<point x="532" y="242" />
			<point x="532" y="344" type="curve"/>
			<point x="532" y="403" type="line"/>
			<point x="532" y="505" />
			<point x="532" y="608" />
			<point x="534" y="708" type="curve"/>
			<point x="639" y="715" type="line"/>
			<point x="639" y="746" type="line"/>
			<point x="362" y="746" type="line"/>
		</contour>
	</outline>
</glyph>
<glyph name="cid58990" format="1" >
	<advance width="1000"/>
	<outline>
		<contour>
			<point x="435" y="715" type="line"/>
			<point x="590" y="707" type="line"/>
			<point x="592" y="230" type="line"/>
			<point x="592" y="76" />
			<point x="520" y="16" />
			<point x="397" y="16" type="curve"/>
			<point x="361" y="16" />
			<point x="333" y="21" />
			<point x="307" y="31" type="curve"/>
			<point x="269" y="123" type="line"/>
			<point x="260" y="149" />
			<point x="248" y="158" />
			<point x="231" y="158" type="curve"/>
			<point x="215" y="158" />
			<point x="201" y="147" />
			<point x="197" y="126" type="curve"/>
			<point x="207" y="44" />
			<point x="278" y="-17" />
			<point x="397" y="-17" type="curve"/>
			<point x="495" y="-17" />
			<point x="548" y="4" />
			<point x="595" y="51" type="curve"/>
			<point x="638" y="94" />
			<point x="657" y="165" />
			<point x="657" y="285" type="curve"/>
			<point x="657" y="400" type="line"/>
			<point x="657" y="505" />
			<point x="657" y="607" />
			<point x="658" y="707" type="curve"/>
			<point x="784" y="715" type="line"/>
			<point x="784" y="746" type="line"/>
			<point x="435" y="746" type="line"/>
		</contour>
	</outline>
</glyph>
<glyph name="cid58991" format="1" >
	<advance width="1000"/>
	<outline>
		<contour>
			<point x="599" y="715" type="line"/>
			<point x="712" y="707" type="line"/>
			<point x="336" y="300" type="line"/>
			<point x="336" y="403" type="line"/>
			<point x="336" y="505" />
			<point x="336" y="608" />
			<point x="337" y="708" type="curve"/>
			<point x="449" y="715" type="line"/>
			<point x="449" y="746" type="line"/>
			<point x="155" y="746" type="line"/>
			<point x="155" y="715" type="line"/>
			<point x="271" y="708" type="line"/>
			<point x="272" y="607" />
			<point x="272" y="504" />
			<point x="272" y="403" type="curve"/>
			<point x="272" y="344" type="line"/>
			<point x="272" y="242" />
			<point x="272" y="140" />
			<point x="271" y="39" type="curve"/>
			<point x="155" y="31" type="line"/>
			<point x="155" y="0" type="line"/>
			<point x="449" y="0" type="line"/>
			<point x="449" y="31" type="line"/>
			<point x="337" y="39" type="line"/>
			<point x="336" y="253" type="line"/>
			<point x="477" y="406" type="line"/>
			<point x="708" y="39" type="line"/>
			<point x="607" y="31" type="line"/>
			<point x="607" y="0" type="line"/>
			<point x="887" y="0" type="line"/>
			<point x="887" y="31" type="line"/>
			<point x="781" y="39" type="line"/>
			<point x="519" y="450" type="line"/>
			<point x="756" y="707" type="line"/>
			<point x="864" y="715" type="line"/>
			<point x="864" y="746" type="line"/>
			<point x="599" y="746" type="line"/>
		</contour>
	</outline>
</glyph>
<glyph name="cid58992" format="1" >
	<advance width="1000"/>
	<outline>
		<contour>
			<point x="372" y="0" type="line"/>
			<point x="825" y="0" type="line"/>
			<point x="836" y="198" type="line"/>
			<point x="796" y="198" type="line"/>
			<point x="776" y="33" type="line"/>
			<point x="404" y="33" type="line"/>
			<point x="403" y="136" />
			<point x="403" y="240" />
			<point x="403" y="344" type="curve"/>
			<point x="403" y="403" type="line"/>
			<point x="403" y="505" />
			<point x="403" y="607" />
			<point x="404" y="707" type="curve"/>
			<point x="530" y="715" type="line"/>
			<point x="530" y="746" type="line"/>
			<point x="222" y="746" type="line"/>
			<point x="222" y="715" type="line"/>
			<point x="337" y="708" type="line"/>
			<point x="339" y="607" />
			<point x="339" y="504" />
			<point x="339" y="403" type="curve"/>
			<point x="339" y="344" type="line"/>
			<point x="339" y="242" />
			<point x="339" y="140" />
			<point x="337" y="39" type="curve"/>
			<point x="222" y="31" type="line"/>
			<point x="222" y="0" type="line"/>
		</contour>
	</outline>
</glyph>
<glyph name="cid58993" format="1" >
	<advance width="1000"/>
	<outline>
		<contour>
			<point x="467" y="0" type="line"/>
			<point x="497" y="0" type="line"/>
			<point x="766" y="662" type="line"/>
			<point x="766" y="344" type="line"/>
			<point x="766" y="242" />
			<point x="766" y="140" />
			<point x="764" y="39" type="curve"/>
			<point x="649" y="31" type="line"/>
			<point x="649" y="0" type="line"/>
			<point x="956" y="0" type="line"/>
			<point x="956" y="31" type="line"/>
			<point x="832" y="39" type="line"/>
			<point x="831" y="140" />
			<point x="831" y="242" />
			<point x="831" y="344" type="curve"/>
			<point x="831" y="403" type="line"/>
			<point x="831" y="505" />
			<point x="831" y="608" />
			<point x="832" y="708" type="curve"/>
			<point x="948" y="715" type="line"/>
			<point x="948" y="746" type="line"/>
			<point x="765" y="746" type="line"/>
			<point x="498" y="95" type="line"/>
			<point x="229" y="746" type="line"/>
			<point x="50" y="746" type="line"/>
			<point x="50" y="715" type="line"/>
			<point x="158" y="706" type="line"/>
			<point x="157" y="40" type="line"/>
			<point x="38" y="31" type="line"/>
			<point x="38" y="0" type="line"/>
			<point x="309" y="0" type="line"/>
			<point x="309" y="31" type="line"/>
			<point x="193" y="40" type="line"/>
			<point x="194" y="667" type="line"/>
		</contour>
	</outline>
</glyph>
<glyph name="cid58994" format="1" >
	<advance width="1000"/>
	<outline>
		<contour>
			<point x="625" y="715" type="line"/>
			<point x="753" y="707" type="line"/>
			<point x="753" y="92" type="line"/>
			<point x="284" y="746" type="line"/>
			<point x="108" y="746" type="line"/>
			<point x="108" y="715" type="line"/>
			<point x="226" y="706" type="line"/>
			<point x="226" y="39" type="line"/>
			<point x="108" y="31" type="line"/>
			<point x="108" y="0" type="line"/>
			<point x="392" y="0" type="line"/>
			<point x="392" y="31" type="line"/>
			<point x="264" y="39" type="line"/>
			<point x="264" y="666" type="line"/>
			<point x="749" y="-9" type="line"/>
			<point x="791" y="-9" type="line"/>
			<point x="791" y="707" type="line"/>
			<point x="909" y="715" type="line"/>
			<point x="909" y="746" type="line"/>
			<point x="625" y="746" type="line"/>
		</contour>
	</outline>
</glyph>
<glyph name="cid58995" format="1" >
	<advance width="1000"/>
	<outline>
		<contour>
			<point x="500" y="-17" type="curve"/>
			<point x="712" y="-17" />
			<point x="865" y="132" />
			<point x="865" y="373" type="curve"/>
			<point x="865" y="614" />
			<point x="712" y="763" />
			<point x="500" y="763" type="curve"/>
			<point x="288" y="763" />
			<point x="135" y="614" />
			<point x="135" y="373" type="curve"/>
			<point x="135" y="132" />
			<point x="288" y="-17" />
		</contour>
		<contour>
			<point x="500" y="17" type="curve"/>
			<point x="312" y="17" />
			<point x="202" y="169" />
			<point x="202" y="373" type="curve"/>
			<point x="202" y="576" />
			<point x="312" y="729" />
			<point x="500" y="729" type="curve"/>
			<point x="688" y="729" />
			<point x="798" y="576" />
			<point x="798" y="373" type="curve"/>
			<point x="798" y="169" />
			<point x="688" y="17" />
		</contour>
	</outline>
</glyph>
<glyph name="cid58996" format="1" >
	<advance width="1000"/>
	<outline>
		<contour>
			<point x="230" y="715" type="line"/>
			<point x="346" y="708" type="line"/>
			<point x="348" y="607" />
			<point x="347" y="504" />
			<point x="347" y="403" type="curve"/>
			<point x="347" y="344" type="line"/>
			<point x="347" y="242" />
			<point x="348" y="140" />
			<point x="346" y="39" type="curve"/>
			<point x="230" y="31" type="line"/>
			<point x="230" y="0" type="line"/>
			<point x="541" y="0" type="line"/>
			<point x="541" y="31" type="line"/>
			<point x="413" y="40" type="line"/>
			<point x="412" y="307" type="line"/>
			<point x="543" y="307" type="line"/>
			<point x="751" y="307" />
			<point x="844" y="398" />
			<point x="844" y="529" type="curve"/>
			<point x="844" y="663" />
			<point x="761" y="746" />
			<point x="573" y="746" type="curve"/>
			<point x="230" y="746" type="line"/>
		</contour>
		<contour>
			<point x="412" y="339" type="line"/>
			<point x="412" y="403" type="line"/>
			<point x="412" y="506" />
			<point x="412" y="611" />
			<point x="413" y="712" type="curve"/>
			<point x="570" y="712" type="line"/>
			<point x="716" y="712" />
			<point x="781" y="649" />
			<point x="781" y="530" type="curve"/>
			<point x="781" y="414" />
			<point x="710" y="339" />
			<point x="542" y="339" type="curve"/>
		</contour>
	</outline>
</glyph>
<glyph name="cid58997" format="1" >
	<advance width="1000"/>
	<outline>
		<contour>
			<point x="500" y="17" type="curve"/>
			<point x="312" y="17" />
			<point x="202" y="169" />
			<point x="202" y="373" type="curve"/>
			<point x="202" y="576" />
			<point x="312" y="729" />
			<point x="500" y="729" type="curve"/>
			<point x="688" y="729" />
			<point x="798" y="576" />
			<point x="798" y="373" type="curve"/>
			<point x="798" y="169" />
			<point x="688" y="17" />
		</contour>
		<contour>
			<point x="699" y="-221" type="curve"/>
			<point x="746" y="-221" />
			<point x="793" y="-212" />
			<point x="850" y="-176" type="curve"/>
			<point x="836" y="-151" type="line"/>
			<point x="790" y="-175" />
			<point x="754" y="-182" />
			<point x="701" y="-182" type="curve"/>
			<point x="605" y="-182" />
			<point x="543" y="-113" />
			<point x="537" y="-15" type="curve"/>
			<point x="730" y="1" />
			<point x="865" y="146" />
			<point x="865" y="373" type="curve"/>
			<point x="865" y="614" />
			<point x="712" y="763" />
			<point x="500" y="763" type="curve"/>
			<point x="288" y="763" />
			<point x="135" y="614" />
			<point x="135" y="373" type="curve"/>
			<point x="135" y="142" />
			<point x="276" y="-5" />
			<point x="474" y="-16" type="curve"/>
			<point x="475" y="-110" />
			<point x="538" y="-221" />
		</contour>
	</outline>
</glyph>
<glyph name="cid58998" format="1" >
	<advance width="1000"/>
	<outline>
		<contour>
			<point x="169" y="715" type="line"/>
			<point x="285" y="708" type="line"/>
			<point x="287" y="607" />
			<point x="286" y="504" />
			<point x="286" y="403" type="curve"/>
			<point x="286" y="344" type="line"/>
			<point x="286" y="242" />
			<point x="287" y="140" />
			<point x="285" y="39" type="curve"/>
			<point x="169" y="31" type="line"/>
			<point x="169" y="0" type="line"/>
			<point x="477" y="0" type="line"/>
			<point x="477" y="31" type="line"/>
			<point x="351" y="39" type="line"/>
			<point x="350" y="137" />
			<point x="350" y="238" />
			<point x="350" y="345" type="curve"/>
			<point x="490" y="345" type="line"/>
			<point x="584" y="345" />
			<point x="597" y="308" />
			<point x="629" y="232" type="curve"/>
			<point x="705" y="51" type="line"/>
			<point x="718" y="12" />
			<point x="741" y="-9" />
			<point x="810" y="-9" type="curve"/>
			<point x="846" y="-9" />
			<point x="873" y="-4" />
			<point x="895" y="0" type="curve"/>
			<point x="895" y="31" type="line"/>
			<point x="777" y="38" type="line"/>
			<point x="694" y="236" type="line"/>
			<point x="666" y="305" />
			<point x="650" y="343" />
			<point x="577" y="358" type="curve"/>
			<point x="694" y="379" />
			<point x="759" y="458" />
			<point x="759" y="553" type="curve"/>
			<point x="759" y="681" />
			<point x="670" y="746" />
			<point x="509" y="746" type="curve"/>
			<point x="169" y="746" type="line"/>
		</contour>
		<contour>
			<point x="351" y="712" type="curve"/>
			<point x="493" y="712" type="line"/>
			<point x="630" y="712" />
			<point x="694" y="657" />
			<point x="694" y="550" type="curve"/>
			<point x="694" y="447" />
			<point x="620" y="377" />
			<point x="513" y="377" type="curve"/>
			<point x="350" y="377" type="line"/>
			<point x="350" y="507" />
			<point x="350" y="612" />
		</contour>
	</outline>
</glyph>
<glyph name="cid58999" format="1" >
	<advance width="1000"/>
	<outline>
		<contour>
			<point x="504" y="-17" type="curve"/>
			<point x="668" y="-17" />
			<point x="778" y="51" />
			<point x="778" y="184" type="curve"/>
			<point x="778" y="276" />
			<point x="735" y="338" />
			<point x="578" y="393" type="curve"/>
			<point x="479" y="428" type="line"/>
			<point x="388" y="459" />
			<point x="336" y="505" />
			<point x="336" y="581" type="curve"/>
			<point x="336" y="678" />
			<point x="418" y="730" />
			<point x="538" y="730" type="curve"/>
			<point x="596" y="730" />
			<point x="640" y="718" />
			<point x="688" y="691" type="curve"/>
			<point x="700" y="564" type="line"/>
			<point x="742" y="564" type="line"/>
			<point x="746" y="702" type="line"/>
			<point x="683" y="743" />
			<point x="627" y="763" />
			<point x="536" y="763" type="curve"/>
			<point x="394" y="763" />
			<point x="277" y="700" />
			<point x="277" y="570" type="curve"/>
			<point x="277" y="467" />
			<point x="339" y="411" />
			<point x="458" y="370" type="curve"/>
			<point x="551" y="337" type="line"/>
			<point x="669" y="297" />
			<point x="718" y="253" />
			<point x="718" y="171" type="curve"/>
			<point x="718" y="72" />
			<point x="631" y="18" />
			<point x="504" y="18" type="curve"/>
			<point x="428" y="18" />
			<point x="367" y="32" />
			<point x="309" y="64" type="curve"/>
			<point x="296" y="197" type="line"/>
			<point x="257" y="197" type="line"/>
			<point x="250" y="52" type="line"/>
			<point x="319" y="8" />
			<point x="401" y="-17" />
		</contour>
	</outline>
</glyph>
<glyph name="cid59000" format="1" >
	<advance width="1000"/>
	<outline>
		<contour>
			<point x="170" y="559" type="line"/>
			<point x="211" y="559" type="line"/>
			<point x="229" y="713" type="line"/>
			<point x="466" y="713" type="line"/>
			<point x="468" y="610" />
			<point x="468" y="506" />
			<point x="468" y="403" type="curve"/>
			<point x="468" y="344" type="line"/>
			<point x="468" y="242" />
			<point x="468" y="140" />
			<point x="466" y="40" type="curve"/>
			<point x="331" y="31" type="line"/>
			<point x="331" y="0" type="line"/>
			<point x="669" y="0" type="line"/>
			<point x="669" y="31" type="line"/>
			<point x="534" y="40" type="line"/>
			<point x="532" y="140" />
			<point x="532" y="242" />
			<point x="532" y="344" type="curve"/>
			<point x="532" y="403" type="line"/>
			<point x="532" y="507" />
			<point x="532" y="611" />
			<point x="534" y="713" type="curve"/>
			<point x="771" y="713" type="line"/>
			<point x="789" y="559" type="line"/>
			<point x="831" y="559" type="line"/>
			<point x="822" y="746" type="line"/>
			<point x="178" y="746" type="line"/>
		</contour>
	</outline>
</glyph>
<glyph name="cid59001" format="1" >
	<advance width="1000"/>
	<outline>
		<contour>
			<point x="641" y="715" type="line"/>
			<point x="754" y="708" type="line"/>
			<point x="754" y="299" type="line"/>
			<point x="754" y="102" />
			<point x="678" y="26" />
			<point x="517" y="26" type="curve"/>
			<point x="375" y="26" />
			<point x="286" y="96" />
			<point x="286" y="281" type="curve"/>
			<point x="286" y="400" type="line"/>
			<point x="286" y="505" />
			<point x="286" y="606" />
			<point x="287" y="707" type="curve"/>
			<point x="411" y="715" type="line"/>
			<point x="411" y="746" type="line"/>
			<point x="104" y="746" type="line"/>
			<point x="104" y="715" type="line"/>
			<point x="220" y="708" type="line"/>
			<point x="221" y="605" />
			<point x="221" y="503" />
			<point x="221" y="400" type="curve"/>
			<point x="221" y="272" type="line"/>
			<point x="221" y="61" />
			<point x="332" y="-17" />
			<point x="507" y="-17" type="curve"/>
			<point x="692" y="-17" />
			<point x="791" y="80" />
			<point x="791" y="277" type="curve"/>
			<point x="791" y="708" type="line"/>
			<point x="896" y="715" type="line"/>
			<point x="896" y="746" type="line"/>
			<point x="641" y="746" type="line"/>
		</contour>
	</outline>
</glyph>
<glyph name="cid59002" format="1" >
	<advance width="1000"/>
	<outline>
		<contour>
			<point x="655" y="715" type="line"/>
			<point x="772" y="707" type="line"/>
			<point x="532" y="66" type="line"/>
			<point x="283" y="707" type="line"/>
			<point x="408" y="715" type="line"/>
			<point x="408" y="746" type="line"/>
			<point x="108" y="746" type="line"/>
			<point x="108" y="715" type="line"/>
			<point x="215" y="708" type="line"/>
			<point x="498" y="-9" type="line"/>
			<point x="542" y="-9" type="line"/>
			<point x="809" y="707" type="line"/>
			<point x="912" y="715" type="line"/>
			<point x="912" y="746" type="line"/>
			<point x="655" y="746" type="line"/>
		</contour>
	</outline>
</glyph>
<glyph name="cid59003" format="1" >
	<advance width="1000"/>
	<outline>
		<contour>
			<point x="765" y="715" type="line"/>
			<point x="872" y="707" type="line"/>
			<point x="715" y="81" type="line"/>
			<point x="546" y="707" type="line"/>
			<point x="648" y="715" type="line"/>
			<point x="648" y="746" type="line"/>
			<point x="389" y="746" type="line"/>
			<point x="389" y="715" type="line"/>
			<point x="490" y="707" type="line"/>
			<point x="322" y="85" type="line"/>
			<point x="161" y="708" type="line"/>
			<point x="262" y="715" type="line"/>
			<point x="262" y="746" type="line"/>
			<point x="4" y="746" type="line"/>
			<point x="4" y="715" type="line"/>
			<point x="94" y="708" type="line"/>
			<point x="286" y="-9" type="line"/>
			<point x="328" y="-9" type="line"/>
			<point x="504" y="636" type="line"/>
			<point x="681" y="-9" type="line"/>
			<point x="723" y="-9" type="line"/>
			<point x="910" y="707" type="line"/>
			<point x="1004" y="715" type="line"/>
			<point x="1004" y="746" type="line"/>
			<point x="765" y="746" type="line"/>
		</contour>
	</outline>
</glyph>
<glyph name="cid59004" format="1" >
	<advance width="1000"/>
	<outline>
		<contour>
			<point x="611" y="715" type="line"/>
			<point x="723" y="707" type="line"/>
			<point x="512" y="410" type="line"/>
			<point x="303" y="708" type="line"/>
			<point x="413" y="715" type="line"/>
			<point x="413" y="746" type="line"/>
			<point x="135" y="746" type="line"/>
			<point x="135" y="715" type="line"/>
			<point x="235" y="707" type="line"/>
			<point x="473" y="366" type="line"/>
			<point x="230" y="38" type="line"/>
			<point x="119" y="31" type="line"/>
			<point x="119" y="0" type="line"/>
			<point x="387" y="0" type="line"/>
			<point x="387" y="31" type="line"/>
			<point x="275" y="38" type="line"/>
			<point x="492" y="338" type="line"/>
			<point x="701" y="39" type="line"/>
			<point x="600" y="31" type="line"/>
			<point x="600" y="0" type="line"/>
			<point x="879" y="0" type="line"/>
			<point x="879" y="31" type="line"/>
			<point x="770" y="39" type="line"/>
			<point x="530" y="384" type="line"/>
			<point x="766" y="707" type="line"/>
			<point x="866" y="715" type="line"/>
			<point x="866" y="746" type="line"/>
			<point x="611" y="746" type="line"/>
		</contour>
	</outline>
</glyph>
<glyph name="cid59005" format="1" >
	<advance width="1000"/>
	<outline>
		<contour>
			<point x="624" y="715" type="line"/>
			<point x="739" y="707" type="line"/>
			<point x="525" y="333" type="line"/>
			<point x="312" y="708" type="line"/>
			<point x="427" y="715" type="line"/>
			<point x="427" y="746" type="line"/>
			<point x="128" y="746" type="line"/>
			<point x="128" y="715" type="line"/>
			<point x="239" y="707" type="line"/>
			<point x="476" y="297" type="line"/>
			<point x="476" y="247" type="line"/>
			<point x="476" y="153" />
			<point x="476" y="117" />
			<point x="474" y="39" type="curve"/>
			<point x="347" y="31" type="line"/>
			<point x="347" y="0" type="line"/>
			<point x="670" y="0" type="line"/>
			<point x="670" y="31" type="line"/>
			<point x="543" y="39" type="line"/>
			<point x="541" y="117" />
			<point x="541" y="153" />
			<point x="541" y="247" type="curve"/>
			<point x="541" y="298" type="line"/>
			<point x="778" y="707" type="line"/>
			<point x="894" y="715" type="line"/>
			<point x="894" y="746" type="line"/>
			<point x="624" y="746" type="line"/>
		</contour>
	</outline>
</glyph>
<glyph name="cid59006" format="1" >
	<advance width="1000"/>
	<outline>
		<contour>
			<point x="209" y="0" type="line"/>
			<point x="797" y="0" type="line"/>
			<point x="807" y="185" type="line"/>
			<point x="770" y="185" type="line"/>
			<point x="746" y="33" type="line"/>
			<point x="286" y="33" type="line"/>
			<point x="792" y="719" type="line"/>
			<point x="792" y="746" type="line"/>
			<point x="226" y="746" type="line"/>
			<point x="217" y="560" type="line"/>
			<point x="255" y="560" type="line"/>
			<point x="277" y="712" type="line"/>
			<point x="716" y="712" type="line"/>
			<point x="209" y="27" type="line"/>
		</contour>
	</outline>
</glyph>
<glyph name="cid59013" format="1" >
	<advance width="1000"/>
	<outline>
		<contour>
			<point x="742" y="-14" type="curve"/>
			<point x="777" y="-14" />
			<point x="803" y="0" />
			<point x="822" y="27" type="curve"/>
			<point x="805" y="43" type="line"/>
			<point x="788" y="28" />
			<point x="776" y="24" />
			<point x="760" y="24" type="curve"/>
			<point x="729" y="24" />
			<point x="712" y="44" />
			<point x="712" y="119" type="curve"/>
			<point x="712" y="369" type="line"/>
			<point x="712" y="486" />
			<point x="642" y="538" />
			<point x="503" y="538" type="curve"/>
			<point x="375" y="538" />
			<point x="286" y="492" />
			<point x="264" y="408" type="curve"/>
			<point x="268" y="389" />
			<point x="281" y="380" />
			<point x="300" y="380" type="curve"/>
			<point x="319" y="380" />
			<point x="333" y="390" />
			<point x="337" y="419" type="curve"/>
			<point x="348" y="474" type="line"/>
			<point x="394" y="499" />
			<point x="440" y="509" />
			<point x="493" y="509" type="curve"/>
			<point x="602" y="509" />
			<point x="652" y="477" />
			<point x="652" y="360" type="curve"/>
			<point x="652" y="325" type="line"/>
			<point x="468" y="285" type="line"/>
			<point x="305" y="252" />
			<point x="252" y="196" />
			<point x="252" y="115" type="curve"/>
			<point x="252" y="31" />
			<point x="324" y="-15" />
			<point x="426" y="-15" type="curve"/>
			<point x="511" y="-15" />
			<point x="572" y="8" />
			<point x="653" y="90" type="curve"/>
			<point x="660" y="14" />
			<point x="690" y="-14" />
		</contour>
		<contour>
			<point x="652" y="119" type="line"/>
			<point x="574" y="44" />
			<point x="514" y="26" />
			<point x="451" y="26" type="curve"/>
			<point x="368" y="26" />
			<point x="312" y="62" />
			<point x="312" y="127" type="curve"/>
			<point x="312" y="185" />
			<point x="353" y="227" />
			<point x="478" y="258" type="curve"/>
			<point x="652" y="299" type="line"/>
		</contour>
	</outline>
</glyph>
<glyph name="cid59014" format="1" >
	<advance width="1000"/>
	<outline>
		<contour>
			<point x="529" y="-17" type="curve"/>
			<point x="680" y="-17" />
			<point x="787" y="87" />
			<point x="787" y="265" type="curve"/>
			<point x="787" y="437" />
			<point x="679" y="538" />
			<point x="542" y="538" type="curve"/>
			<point x="464" y="538" />
			<point x="398" y="515" />
			<point x="339" y="452" type="curve"/>
			<point x="339" y="651" type="line"/>
			<point x="341" y="808" type="line"/>
			<point x="324" y="817" type="line"/>
			<point x="161" y="797" type="line"/>
			<point x="161" y="769" type="line"/>
			<point x="276" y="767" type="line"/>
			<point x="276" y="233" type="line"/>
			<point x="274" y="39" type="line"/>
			<point x="160" y="30" type="line"/>
			<point x="160" y="0" type="line"/>
			<point x="332" y="-7" type="line"/>
			<point x="338" y="66" type="line"/>
			<point x="392" y="5" />
			<point x="464" y="-17" />
		</contour>
		<contour>
			<point x="339" y="420" type="line"/>
			<point x="403" y="478" />
			<point x="456" y="497" />
			<point x="518" y="497" type="curve"/>
			<point x="639" y="497" />
			<point x="719" y="415" />
			<point x="719" y="265" type="curve"/>
			<point x="719" y="118" />
			<point x="643" y="25" />
			<point x="519" y="25" type="curve"/>
			<point x="451" y="25" />
			<point x="395" y="44" />
			<point x="339" y="97" type="curve"/>
		</contour>
	</outline>
</glyph>
<glyph name="cid59015" format="1" >
	<advance width="1000"/>
	<outline>
		<contour>
			<point x="532" y="-17" type="curve"/>
			<point x="635" y="-17" />
			<point x="710" y="21" />
			<point x="761" y="85" type="curve"/>
			<point x="742" y="101" type="line"/>
			<point x="690" y="51" />
			<point x="621" y="29" />
			<point x="551" y="29" type="curve"/>
			<point x="418" y="29" />
			<point x="318" y="110" />
			<point x="318" y="269" type="curve"/>
			<point x="318" y="418" />
			<point x="420" y="507" />
			<point x="547" y="507" type="curve"/>
			<point x="586" y="507" />
			<point x="622" y="504" />
			<point x="663" y="483" type="curve"/>
			<point x="684" y="421" type="line"/>
			<point x="691" y="394" />
			<point x="704" y="384" />
			<point x="724" y="384" type="curve"/>
			<point x="742" y="384" />
			<point x="754" y="394" />
			<point x="759" y="414" type="curve"/>
			<point x="730" y="495" />
			<point x="643" y="538" />
			<point x="542" y="538" type="curve"/>
			<point x="377" y="538" />
			<point x="249" y="432" />
			<point x="249" y="260" type="curve"/>
			<point x="249" y="75" />
			<point x="372" y="-17" />
		</contour>
	</outline>
</glyph>
<glyph name="cid59016" format="1" >
	<advance width="1000"/>
	<outline>
		<contour>
			<point x="655" y="-7" type="line"/>
			<point x="831" y="0" type="line"/>
			<point x="831" y="30" type="line"/>
			<point x="717" y="37" type="line"/>
			<point x="717" y="654" type="line"/>
			<point x="720" y="808" type="line"/>
			<point x="704" y="817" type="line"/>
			<point x="540" y="797" type="line"/>
			<point x="540" y="769" type="line"/>
			<point x="655" y="767" type="line"/>
			<point x="655" y="454" type="line"/>
			<point x="601" y="516" />
			<point x="532" y="538" />
			<point x="466" y="538" type="curve"/>
			<point x="318" y="538" />
			<point x="207" y="431" />
			<point x="207" y="255" type="curve"/>
			<point x="207" y="75" />
			<point x="314" y="-17" />
			<point x="452" y="-17" type="curve"/>
			<point x="526" y="-17" />
			<point x="593" y="5" />
			<point x="654" y="69" type="curve"/>
		</contour>
		<contour>
			<point x="654" y="103" type="line"/>
			<point x="590" y="44" />
			<point x="538" y="25" />
			<point x="476" y="25" type="curve"/>
			<point x="353" y="25" />
			<point x="273" y="102" />
			<point x="273" y="256" type="curve"/>
			<point x="273" y="403" />
			<point x="358" y="498" />
			<point x="477" y="498" type="curve"/>
			<point x="543" y="498" />
			<point x="597" y="478" />
			<point x="654" y="422" type="curve"/>
		</contour>
	</outline>
</glyph>
<glyph name="cid59017" format="1" >
	<advance width="1000"/>
	<outline>
		<contour>
			<point x="529" y="-17" type="curve"/>
			<point x="619" y="-17" />
			<point x="702" y="17" />
			<point x="748" y="79" type="curve"/>
			<point x="730" y="98" type="line"/>
			<point x="685" y="52" />
			<point x="620" y="29" />
			<point x="542" y="29" type="curve"/>
			<point x="428" y="29" />
			<point x="314" y="104" />
			<point x="312" y="265" type="curve"/>
			<point x="751" y="265" type="line"/>
			<point x="756" y="283" />
			<point x="758" y="302" />
			<point x="758" y="328" type="curve"/>
			<point x="758" y="441" />
			<point x="676" y="538" />
			<point x="524" y="538" type="curve"/>
			<point x="369" y="538" />
			<point x="243" y="436" />
			<point x="243" y="264" type="curve"/>
			<point x="243" y="72" />
			<point x="384" y="-17" />
		</contour>
		<contour>
			<point x="313" y="296" type="line"/>
			<point x="322" y="423" />
			<point x="398" y="507" />
			<point x="523" y="507" type="curve"/>
			<point x="635" y="507" />
			<point x="696" y="432" />
			<point x="696" y="345" type="curve"/>
			<point x="696" y="308" />
			<point x="688" y="296" />
			<point x="665" y="296" type="curve"/>
		</contour>
	</outline>
</glyph>
<glyph name="cid59018" format="1" >
	<advance width="1000"/>
	<outline>
		<contour>
			<point x="433" y="0" type="line"/>
			<point x="638" y="0" type="line"/>
			<point x="638" y="29" type="line"/>
			<point x="500" y="37" type="line"/>
			<point x="498" y="102" />
			<point x="497" y="166" />
			<point x="497" y="231" type="curve"/>
			<point x="497" y="484" type="line"/>
			<point x="714" y="479" type="line"/>
			<point x="714" y="521" type="line"/>
			<point x="497" y="521" type="line"/>
			<point x="497" y="551" type="line"/>
			<point x="497" y="738" />
			<point x="560" y="798" />
			<point x="658" y="798" type="curve"/>
			<point x="675" y="798" />
			<point x="692" y="797" />
			<point x="711" y="791" type="curve"/>
			<point x="733" y="753" type="line"/>
			<point x="755" y="713" />
			<point x="770" y="703" />
			<point x="789" y="705" type="curve"/>
			<point x="806" y="706" />
			<point x="817" y="721" />
			<point x="819" y="737" type="curve"/>
			<point x="804" y="801" />
			<point x="736" y="830" />
			<point x="655" y="830" type="curve"/>
			<point x="494" y="830" />
			<point x="436" y="706" />
			<point x="436" y="564" type="curve"/>
			<point x="436" y="522" type="line"/>
			<point x="324" y="515" type="line"/>
			<point x="324" y="485" type="line"/>
			<point x="437" y="485" type="line"/>
			<point x="437" y="231" type="line"/>
			<point x="437" y="166" />
			<point x="436" y="101" />
			<point x="434" y="37" type="curve"/>
			<point x="330" y="29" type="line"/>
			<point x="330" y="0" type="line"/>
		</contour>
	</outline>
</glyph>
<glyph name="cid59019" format="1" >
	<advance width="1000"/>
	<outline>
		<contour>
			<point x="488" y="207" type="curve"/>
			<point x="401" y="207" />
			<point x="342" y="269" />
			<point x="342" y="358" type="curve"/>
			<point x="342" y="448" />
			<point x="402" y="508" />
			<point x="488" y="508" type="curve"/>
			<point x="574" y="508" />
			<point x="634" y="448" />
			<point x="634" y="358" type="curve"/>
			<point x="634" y="269" />
			<point x="574" y="207" />
		</contour>
		<contour>
			<point x="352" y="3" type="curve"/>
			<point x="376" y="-6" />
			<point x="407" y="-11" />
			<point x="445" y="-11" type="curve"/>
			<point x="622" y="-11" type="line"/>
			<point x="708" y="-11" />
			<point x="732" y="-44" />
			<point x="732" y="-89" type="curve"/>
			<point x="732" y="-171" />
			<point x="655" y="-237" />
			<point x="498" y="-237" type="curve"/>
			<point x="365" y="-237" />
			<point x="293" y="-185" />
			<point x="293" y="-99" type="curve"/>
			<point x="293" y="-51" />
			<point x="314" y="-26" />
		</contour>
		<contour>
			<point x="488" y="177" type="curve"/>
			<point x="619" y="177" />
			<point x="695" y="256" />
			<point x="695" y="358" type="curve"/>
			<point x="695" y="402" />
			<point x="681" y="442" />
			<point x="653" y="473" type="curve"/>
			<point x="799" y="474" type="line"/>
			<point x="799" y="520" type="line"/>
			<point x="782" y="532" type="line"/>
			<point x="628" y="496" type="line"/>
			<point x="594" y="523" />
			<point x="546" y="538" />
			<point x="488" y="538" type="curve"/>
			<point x="357" y="538" />
			<point x="281" y="460" />
			<point x="281" y="358" type="curve"/>
			<point x="281" y="299" />
			<point x="307" y="247" />
			<point x="354" y="214" type="curve"/>
			<point x="301" y="180" />
			<point x="278" y="145" />
			<point x="278" y="103" type="curve"/>
			<point x="278" y="66" />
			<point x="294" y="36" />
			<point x="326" y="16" type="curve"/>
			<point x="276" y="-10" />
			<point x="240" y="-53" />
			<point x="240" y="-110" type="curve"/>
			<point x="240" y="-204" />
			<point x="324" y="-273" />
			<point x="484" y="-273" type="curve"/>
			<point x="693" y="-273" />
			<point x="793" y="-177" />
			<point x="793" y="-75" type="curve"/>
			<point x="793" y="2" />
			<point x="739" y="47" />
			<point x="618" y="47" type="curve"/>
			<point x="448" y="47" type="line"/>
			<point x="355" y="47" />
			<point x="328" y="79" />
			<point x="328" y="124" type="curve"/>
			<point x="328" y="154" />
			<point x="340" y="170" />
			<point x="375" y="202" type="curve"/>
			<point x="406" y="186" />
			<point x="444" y="177" />
		</contour>
	</outline>
</glyph>
<glyph name="cid59020" format="1" >
	<advance width="1000"/>
	<outline>
		<contour>
			<point x="676" y="0" type="line"/>
			<point x="841" y="0" type="line"/>
			<point x="841" y="30" type="line"/>
			<point x="745" y="37" type="line"/>
			<point x="743" y="233" type="line"/>
			<point x="743" y="342" type="line"/>
			<point x="743" y="491" />
			<point x="678" y="538" />
			<point x="581" y="538" type="curve"/>
			<point x="498" y="538" />
			<point x="420" y="513" />
			<point x="332" y="427" type="curve"/>
			<point x="332" y="651" type="line"/>
			<point x="334" y="808" type="line"/>
			<point x="317" y="817" type="line"/>
			<point x="155" y="797" type="line"/>
			<point x="155" y="769" type="line"/>
			<point x="269" y="767" type="line"/>
			<point x="269" y="233" type="line"/>
			<point x="267" y="38" type="line"/>
			<point x="172" y="30" type="line"/>
			<point x="172" y="0" type="line"/>
			<point x="430" y="0" type="line"/>
			<point x="430" y="30" type="line"/>
			<point x="335" y="37" type="line"/>
			<point x="333" y="94" />
			<point x="332" y="178" />
			<point x="332" y="233" type="curve"/>
			<point x="332" y="394" type="line"/>
			<point x="420" y="472" />
			<point x="498" y="492" />
			<point x="555" y="492" type="curve"/>
			<point x="639" y="492" />
			<point x="679" y="448" />
			<point x="679" y="330" type="curve"/>
			<point x="679" y="233" type="line"/>
			<point x="677" y="37" type="line"/>
			<point x="583" y="30" type="line"/>
			<point x="583" y="0" type="line"/>
		</contour>
	</outline>
</glyph>
<glyph name="cid59021" format="1" >
	<advance width="1000"/>
	<outline>
		<contour>
			<point x="505" y="700" type="curve"/>
			<point x="531" y="700" />
			<point x="552" y="719" />
			<point x="552" y="747" type="curve"/>
			<point x="552" y="774" />
			<point x="531" y="792" />
			<point x="505" y="792" type="curve"/>
			<point x="481" y="792" />
			<point x="458" y="774" />
			<point x="458" y="747" type="curve"/>
			<point x="458" y="719" />
			<point x="481" y="700" />
		</contour>
		<contour>
			<point x="477" y="0" type="line"/>
			<point x="661" y="0" type="line"/>
			<point x="661" y="30" type="line"/>
			<point x="545" y="38" type="line"/>
			<point x="543" y="233" type="line"/>
			<point x="543" y="389" type="line"/>
			<point x="546" y="524" type="line"/>
			<point x="533" y="531" type="line"/>
			<point x="366" y="507" type="line"/>
			<point x="366" y="479" type="line"/>
			<point x="477" y="478" type="line"/>
			<point x="479" y="422" />
			<point x="480" y="360" />
			<point x="480" y="284" type="curve"/>
			<point x="480" y="233" type="line"/>
			<point x="478" y="39" type="line"/>
			<point x="363" y="30" type="line"/>
			<point x="363" y="0" type="line"/>
		</contour>
	</outline>
</glyph>
<glyph name="cid59022" format="1" >
	<advance width="1000"/>
	<outline>
		<contour>
			<point x="547" y="700" type="curve"/>
			<point x="573" y="700" />
			<point x="594" y="719" />
			<point x="594" y="747" type="curve"/>
			<point x="594" y="774" />
			<point x="573" y="792" />
			<point x="547" y="792" type="curve"/>
			<point x="523" y="792" />
			<point x="500" y="774" />
			<point x="500" y="747" type="curve"/>
			<point x="500" y="719" />
			<point x="523" y="700" />
		</contour>
		<contour>
			<point x="365" y="-283" type="curve"/>
			<point x="523" y="-283" />
			<point x="585" y="-174" />
			<point x="585" y="5" type="curve"/>
			<point x="585" y="389" type="line"/>
			<point x="588" y="524" type="line"/>
			<point x="575" y="531" type="line"/>
			<point x="391" y="507" type="line"/>
			<point x="391" y="479" type="line"/>
			<point x="518" y="478" type="line"/>
			<point x="520" y="424" />
			<point x="522" y="359" />
			<point x="522" y="284" type="curve"/>
			<point x="522" y="1" type="line"/>
			<point x="522" y="-192" />
			<point x="459" y="-251" />
			<point x="362" y="-251" type="curve"/>
			<point x="344" y="-251" />
			<point x="327" y="-249" />
			<point x="307" y="-244" type="curve"/>
			<point x="286" y="-206" type="line"/>
			<point x="263" y="-164" />
			<point x="250" y="-158" />
			<point x="233" y="-158" type="curve"/>
			<point x="214" y="-158" />
			<point x="202" y="-174" />
			<point x="201" y="-190" type="curve"/>
			<point x="216" y="-249" />
			<point x="284" y="-283" />
		</contour>
	</outline>
</glyph>
<glyph name="cid59023" format="1" >
	<advance width="1000"/>
	<outline>
		<contour>
			<point x="520" y="492" type="line"/>
			<point x="624" y="485" type="line"/>
			<point x="361" y="235" type="line"/>
			<point x="361" y="651" type="line"/>
			<point x="364" y="808" type="line"/>
			<point x="346" y="817" type="line"/>
			<point x="184" y="797" type="line"/>
			<point x="184" y="769" type="line"/>
			<point x="298" y="767" type="line"/>
			<point x="298" y="233" type="line"/>
			<point x="296" y="38" type="line"/>
			<point x="201" y="30" type="line"/>
			<point x="201" y="0" type="line"/>
			<point x="459" y="0" type="line"/>
			<point x="459" y="30" type="line"/>
			<point x="363" y="37" type="line"/>
			<point x="361" y="195" type="line"/>
			<point x="471" y="298" type="line"/>
			<point x="671" y="0" type="line"/>
			<point x="824" y="0" type="line"/>
			<point x="824" y="30" type="line"/>
			<point x="712" y="38" type="line"/>
			<point x="511" y="335" type="line"/>
			<point x="672" y="485" type="line"/>
			<point x="789" y="492" type="line"/>
			<point x="789" y="521" type="line"/>
			<point x="520" y="521" type="line"/>
		</contour>
	</outline>
</glyph>
<glyph name="cid59024" format="1" >
	<advance width="1000"/>
	<outline>
		<contour>
			<point x="465" y="0" type="line"/>
			<point x="641" y="0" type="line"/>
			<point x="641" y="29" type="line"/>
			<point x="535" y="36" type="line"/>
			<point x="533" y="102" />
			<point x="532" y="167" />
			<point x="532" y="233" type="curve"/>
			<point x="532" y="651" type="line"/>
			<point x="535" y="808" type="line"/>
			<point x="518" y="817" type="line"/>
			<point x="354" y="797" type="line"/>
			<point x="354" y="769" type="line"/>
			<point x="469" y="767" type="line"/>
			<point x="469" y="233" type="line"/>
			<point x="469" y="167" />
			<point x="468" y="102" />
			<point x="466" y="37" type="curve"/>
			<point x="360" y="29" type="line"/>
			<point x="360" y="0" type="line"/>
		</contour>
	</outline>
</glyph>
<glyph name="cid59025" format="1" >
	<advance width="1000"/>
	<outline>
		<contour>
			<point x="815" y="0" type="line"/>
			<point x="977" y="0" type="line"/>
			<point x="977" y="30" type="line"/>
			<point x="883" y="37" type="line"/>
			<point x="881" y="233" type="line"/>
			<point x="881" y="350" type="line"/>
			<point x="881" y="486" />
			<point x="827" y="538" />
			<point x="732" y="538" type="curve"/>
			<point x="660" y="538" />
			<point x="597" y="504" />
			<point x="532" y="435" type="curve"/>
			<point x="513" y="507" />
			<point x="464" y="538" />
			<point x="396" y="538" type="curve"/>
			<point x="327" y="538" />
			<point x="252" y="493" />
			<point x="198" y="427" type="curve"/>
			<point x="195" y="524" type="line"/>
			<point x="183" y="531" type="line"/>
			<point x="39" y="507" type="line"/>
			<point x="39" y="479" type="line"/>
			<point x="132" y="478" type="line"/>
			<point x="134" y="424" />
			<point x="135" y="360" />
			<point x="135" y="287" type="curve"/>
			<point x="135" y="233" type="line"/>
			<point x="133" y="37" type="line"/>
			<point x="41" y="30" type="line"/>
			<point x="41" y="0" type="line"/>
			<point x="294" y="0" type="line"/>
			<point x="294" y="30" type="line"/>
			<point x="201" y="37" type="line"/>
			<point x="199" y="233" type="line"/>
			<point x="199" y="394" type="line"/>
			<point x="246" y="447" />
			<point x="312" y="492" />
			<point x="373" y="492" type="curve"/>
			<point x="433" y="492" />
			<point x="477" y="454" />
			<point x="477" y="355" type="curve"/>
			<point x="477" y="233" type="line"/>
			<point x="475" y="38" type="line"/>
			<point x="382" y="30" type="line"/>
			<point x="382" y="0" type="line"/>
			<point x="635" y="0" type="line"/>
			<point x="635" y="30" type="line"/>
			<point x="542" y="38" type="line"/>
			<point x="540" y="233" type="line"/>
			<point x="540" y="360" type="line"/>
			<point x="540" y="375" />
			<point x="539" y="389" />
			<point x="538" y="402" type="curve"/>
			<point x="592" y="456" />
			<point x="658" y="492" />
			<point x="715" y="492" type="curve"/>
			<point x="774" y="492" />
			<point x="818" y="453" />
			<point x="818" y="347" type="curve"/>
			<point x="818" y="233" type="line"/>
			<point x="816" y="38" type="line"/>
			<point x="723" y="30" type="line"/>
			<point x="723" y="0" type="line"/>
		</contour>
	</outline>
</glyph>
<glyph name="cid59026" format="1" >
	<advance width="1000"/>
	<outline>
		<contour>
			<point x="676" y="0" type="line"/>
			<point x="840" y="0" type="line"/>
			<point x="840" y="30" type="line"/>
			<point x="745" y="37" type="line"/>
			<point x="743" y="233" type="line"/>
			<point x="743" y="350" type="line"/>
			<point x="743" y="495" />
			<point x="680" y="538" />
			<point x="586" y="538" type="curve"/>
			<point x="505" y="538" />
			<point x="423" y="508" />
			<point x="332" y="425" type="curve"/>
			<point x="329" y="524" type="line"/>
			<point x="316" y="531" type="line"/>
			<point x="172" y="507" type="line"/>
			<point x="172" y="479" type="line"/>
			<point x="266" y="478" type="line"/>
			<point x="268" y="423" />
			<point x="269" y="360" />
			<point x="269" y="287" type="curve"/>
			<point x="269" y="233" type="line"/>
			<point x="267" y="38" type="line"/>
			<point x="172" y="30" type="line"/>
			<point x="172" y="0" type="line"/>
			<point x="429" y="0" type="line"/>
			<point x="429" y="30" type="line"/>
			<point x="334" y="37" type="line"/>
			<point x="332" y="233" type="line"/>
			<point x="332" y="392" type="line"/>
			<point x="421" y="464" />
			<point x="508" y="492" />
			<point x="568" y="492" type="curve"/>
			<point x="641" y="492" />
			<point x="679" y="452" />
			<point x="679" y="348" type="curve"/>
			<point x="679" y="233" type="line"/>
			<point x="677" y="37" type="line"/>
			<point x="583" y="30" type="line"/>
			<point x="583" y="0" type="line"/>
		</contour>
	</outline>
</glyph>
<glyph name="cid59027" format="1" >
	<advance width="1000"/>
	<outline>
		<contour>
			<point x="500" y="-17" type="curve"/>
			<point x="648" y="-17" />
			<point x="780" y="77" />
			<point x="780" y="260" type="curve"/>
			<point x="780" y="444" />
			<point x="645" y="538" />
			<point x="500" y="538" type="curve"/>
			<point x="356" y="538" />
			<point x="220" y="444" />
			<point x="220" y="260" type="curve"/>
			<point x="220" y="77" />
			<point x="352" y="-17" />
		</contour>
		<contour>
			<point x="500" y="14" type="curve"/>
			<point x="372" y="14" />
			<point x="288" y="105" />
			<point x="288" y="260" type="curve"/>
			<point x="288" y="413" />
			<point x="372" y="507" />
			<point x="500" y="507" type="curve"/>
			<point x="628" y="507" />
			<point x="712" y="413" />
			<point x="712" y="260" type="curve"/>
			<point x="712" y="105" />
			<point x="628" y="14" />
		</contour>
	</outline>
</glyph>
<glyph name="cid59028" format="1" >
	<advance width="1000"/>
	<outline>
		<contour>
			<point x="554" y="-17" type="curve"/>
			<point x="704" y="-17" />
			<point x="813" y="89" />
			<point x="813" y="265" type="curve"/>
			<point x="813" y="437" />
			<point x="705" y="538" />
			<point x="568" y="538" type="curve"/>
			<point x="491" y="538" />
			<point x="424" y="515" />
			<point x="365" y="451" type="curve"/>
			<point x="362" y="524" type="line"/>
			<point x="349" y="531" type="line"/>
			<point x="191" y="507" type="line"/>
			<point x="191" y="479" type="line"/>
			<point x="299" y="478" type="line"/>
			<point x="302" y="424" />
			<point x="303" y="361" />
			<point x="303" y="287" type="curve"/>
			<point x="303" y="-36" type="line"/>
			<point x="301" y="-235" type="line"/>
			<point x="187" y="-243" type="line"/>
			<point x="187" y="-273" type="line"/>
			<point x="504" y="-273" type="line"/>
			<point x="504" y="-243" type="line"/>
			<point x="367" y="-235" type="line"/>
			<point x="365" y="-176" />
			<point x="365" y="-92" />
			<point x="365" y="-36" type="curve"/>
			<point x="365" y="65" type="line"/>
			<point x="419" y="5" />
			<point x="490" y="-17" />
		</contour>
		<contour>
			<point x="366" y="421" type="line"/>
			<point x="430" y="478" />
			<point x="483" y="497" />
			<point x="544" y="497" type="curve"/>
			<point x="666" y="497" />
			<point x="746" y="415" />
			<point x="746" y="265" type="curve"/>
			<point x="746" y="118" />
			<point x="662" y="25" />
			<point x="544" y="25" type="curve"/>
			<point x="477" y="25" />
			<point x="422" y="44" />
			<point x="366" y="96" type="curve"/>
		</contour>
	</outline>
</glyph>
<glyph name="cid59029" format="1" >
	<advance width="1000"/>
	<outline>
		<contour>
			<point x="457" y="-17" type="curve"/>
			<point x="531" y="-17" />
			<point x="598" y="5" />
			<point x="659" y="68" type="curve"/>
			<point x="659" y="-40" type="line"/>
			<point x="657" y="-235" type="line"/>
			<point x="531" y="-243" type="line"/>
			<point x="531" y="-273" type="line"/>
			<point x="838" y="-273" type="line"/>
			<point x="838" y="-243" type="line"/>
			<point x="724" y="-235" type="line"/>
			<point x="722" y="-40" type="line"/>
			<point x="722" y="377" type="line"/>
			<point x="725" y="523" type="line"/>
			<point x="701" y="528" type="line"/>
			<point x="666" y="455" type="line"/>
			<point x="612" y="516" />
			<point x="540" y="538" />
			<point x="473" y="538" type="curve"/>
			<point x="323" y="538" />
			<point x="211" y="431" />
			<point x="211" y="257" type="curve"/>
			<point x="211" y="84" />
			<point x="318" y="-17" />
		</contour>
		<contour>
			<point x="658" y="102" type="line"/>
			<point x="594" y="44" />
			<point x="543" y="25" />
			<point x="480" y="25" type="curve"/>
			<point x="357" y="25" />
			<point x="278" y="107" />
			<point x="278" y="257" type="curve"/>
			<point x="278" y="403" />
			<point x="363" y="498" />
			<point x="483" y="498" type="curve"/>
			<point x="549" y="498" />
			<point x="602" y="480" />
			<point x="658" y="428" type="curve"/>
		</contour>
	</outline>
</glyph>
<glyph name="cid59030" format="1" >
	<advance width="1000"/>
	<outline>
		<contour>
			<point x="413" y="0" type="line"/>
			<point x="619" y="0" type="line"/>
			<point x="619" y="29" type="line"/>
			<point x="482" y="38" type="line"/>
			<point x="480" y="233" type="line"/>
			<point x="480" y="339" type="line"/>
			<point x="520" y="433" />
			<point x="583" y="483" />
			<point x="658" y="498" type="curve"/>
			<point x="668" y="489" type="line"/>
			<point x="692" y="467" />
			<point x="708" y="454" />
			<point x="732" y="454" type="curve"/>
			<point x="760" y="454" />
			<point x="775" y="471" />
			<point x="775" y="498" type="curve"/>
			<point x="767" y="522" />
			<point x="737" y="538" />
			<point x="695" y="538" type="curve"/>
			<point x="608" y="538" />
			<point x="516" y="478" />
			<point x="480" y="385" type="curve"/>
			<point x="477" y="524" type="line"/>
			<point x="464" y="531" type="line"/>
			<point x="304" y="509" type="line"/>
			<point x="304" y="479" type="line"/>
			<point x="413" y="478" type="line"/>
			<point x="416" y="425" />
			<point x="417" y="361" />
			<point x="417" y="287" type="curve"/>
			<point x="417" y="233" type="line"/>
			<point x="417" y="178" />
			<point x="416" y="95" />
			<point x="415" y="38" type="curve"/>
			<point x="299" y="29" type="line"/>
			<point x="299" y="0" type="line"/>
		</contour>
	</outline>
</glyph>
<glyph name="cid59031" format="1" >
	<advance width="1000"/>
	<outline>
		<contour>
			<point x="486" y="-17" type="curve"/>
			<point x="649" y="-17" />
			<point x="720" y="46" />
			<point x="720" y="134" type="curve"/>
			<point x="720" y="209" />
			<point x="682" y="246" />
			<point x="568" y="280" type="curve"/>
			<point x="460" y="314" type="line"/>
			<point x="374" y="341" />
			<point x="340" y="363" />
			<point x="340" y="414" type="curve"/>
			<point x="340" y="470" />
			<point x="393" y="507" />
			<point x="496" y="507" type="curve"/>
			<point x="544" y="507" />
			<point x="589" y="500" />
			<point x="642" y="477" type="curve"/>
			<point x="653" y="389" type="line"/>
			<point x="695" y="389" type="line"/>
			<point x="699" y="492" type="line"/>
			<point x="624" y="525" />
			<point x="559" y="538" />
			<point x="499" y="538" type="curve"/>
			<point x="355" y="538" />
			<point x="284" y="484" />
			<point x="284" y="401" type="curve"/>
			<point x="284" y="326" />
			<point x="334" y="293" />
			<point x="432" y="262" type="curve"/>
			<point x="527" y="233" type="line"/>
			<point x="632" y="200" />
			<point x="662" y="174" />
			<point x="662" y="121" type="curve"/>
			<point x="662" y="55" />
			<point x="600" y="14" />
			<point x="496" y="14" type="curve"/>
			<point x="423" y="14" />
			<point x="373" y="23" />
			<point x="321" y="44" type="curve"/>
			<point x="306" y="146" type="line"/>
			<point x="264" y="146" type="line"/>
			<point x="267" y="28" type="line"/>
			<point x="346" y="-7" />
			<point x="414" y="-17" />
		</contour>
	</outline>
</glyph>
<glyph name="cid59032" format="1" >
	<advance width="1000"/>
	<outline>
		<contour>
			<point x="521" y="-12" type="curve"/>
			<point x="591" y="-12" />
			<point x="647" y="12" />
			<point x="693" y="52" type="curve"/>
			<point x="678" y="74" type="line"/>
			<point x="631" y="45" />
			<point x="596" y="32" />
			<point x="537" y="32" type="curve"/>
			<point x="468" y="32" />
			<point x="437" y="65" />
			<point x="437" y="156" type="curve"/>
			<point x="437" y="484" type="line"/>
			<point x="651" y="479" type="line"/>
			<point x="651" y="521" type="line"/>
			<point x="438" y="521" type="line"/>
			<point x="441" y="688" type="line"/>
			<point x="397" y="688" type="line"/>
			<point x="375" y="521" type="line"/>
			<point x="261" y="515" type="line"/>
			<point x="261" y="485" type="line"/>
			<point x="374" y="485" type="line"/>
			<point x="374" y="236" type="line"/>
			<point x="374" y="199" />
			<point x="373" y="174" />
			<point x="373" y="138" type="curve"/>
			<point x="373" y="41" />
			<point x="410" y="-11" />
		</contour>
	</outline>
</glyph>
<glyph name="cid59033" format="1" >
	<advance width="1000"/>
	<outline>
		<contour>
			<point x="667" y="-5" type="line"/>
			<point x="835" y="0" type="line"/>
			<point x="835" y="30" type="line"/>
			<point x="732" y="38" type="line"/>
			<point x="732" y="359" type="line"/>
			<point x="736" y="514" type="line"/>
			<point x="724" y="526" type="line"/>
			<point x="562" y="515" type="line"/>
			<point x="562" y="487" type="line"/>
			<point x="669" y="481" type="line"/>
			<point x="669" y="131" type="line"/>
			<point x="608" y="72" />
			<point x="541" y="31" />
			<point x="460" y="31" type="curve"/>
			<point x="372" y="31" />
			<point x="322" y="75" />
			<point x="322" y="196" type="curve"/>
			<point x="322" y="359" type="line"/>
			<point x="326" y="514" type="line"/>
			<point x="314" y="526" type="line"/>
			<point x="154" y="516" type="line"/>
			<point x="154" y="488" type="line"/>
			<point x="261" y="481" type="line"/>
			<point x="258" y="195" type="line"/>
			<point x="257" y="36" />
			<point x="319" y="-17" />
			<point x="438" y="-17" type="curve"/>
			<point x="537" y="-17" />
			<point x="609" y="33" />
			<point x="669" y="96" type="curve"/>
		</contour>
	</outline>
</glyph>
<glyph name="cid59034" format="1" >
	<advance width="1000"/>
	<outline>
		<contour>
			<point x="609" y="492" type="line"/>
			<point x="706" y="485" type="line"/>
			<point x="521" y="63" type="line"/>
			<point x="333" y="484" type="line"/>
			<point x="433" y="492" type="line"/>
			<point x="433" y="521" type="line"/>
			<point x="173" y="521" type="line"/>
			<point x="173" y="492" type="line"/>
			<point x="263" y="485" type="line"/>
			<point x="489" y="-7" type="line"/>
			<point x="523" y="-7" type="line"/>
			<point x="748" y="485" type="line"/>
			<point x="833" y="492" type="line"/>
			<point x="833" y="521" type="line"/>
			<point x="609" y="521" type="line"/>
		</contour>
	</outline>
</glyph>
<glyph name="cid59035" format="1" >
	<advance width="1000"/>
	<outline>
		<contour>
			<point x="739" y="492" type="line"/>
			<point x="833" y="484" type="line"/>
			<point x="693" y="82" type="line"/>
			<point x="549" y="485" type="line"/>
			<point x="636" y="492" type="line"/>
			<point x="636" y="521" type="line"/>
			<point x="390" y="521" type="line"/>
			<point x="390" y="492" type="line"/>
			<point x="480" y="485" type="line"/>
			<point x="340" y="84" type="line"/>
			<point x="200" y="485" type="line"/>
			<point x="294" y="492" type="line"/>
			<point x="294" y="521" type="line"/>
			<point x="52" y="521" type="line"/>
			<point x="52" y="492" type="line"/>
			<point x="129" y="485" type="line"/>
			<point x="311" y="-7" type="line"/>
			<point x="342" y="-7" type="line"/>
			<point x="501" y="449" type="line"/>
			<point x="665" y="-7" type="line"/>
			<point x="694" y="-7" type="line"/>
			<point x="871" y="484" type="line"/>
			<point x="955" y="492" type="line"/>
			<point x="955" y="521" type="line"/>
			<point x="739" y="521" type="line"/>
		</contour>
	</outline>
</glyph>
<glyph name="cid59036" format="1" >
	<advance width="1000"/>
	<outline>
		<contour>
			<point x="584" y="492" type="line"/>
			<point x="659" y="485" type="line"/>
			<point x="510" y="304" type="line"/>
			<point x="361" y="485" type="line"/>
			<point x="441" y="492" type="line"/>
			<point x="441" y="521" type="line"/>
			<point x="197" y="521" type="line"/>
			<point x="197" y="492" type="line"/>
			<point x="287" y="485" type="line"/>
			<point x="470" y="260" type="line"/>
			<point x="273" y="37" type="line"/>
			<point x="178" y="30" type="line"/>
			<point x="178" y="0" type="line"/>
			<point x="398" y="0" type="line"/>
			<point x="398" y="30" type="line"/>
			<point x="321" y="36" type="line"/>
			<point x="488" y="238" type="line"/>
			<point x="654" y="37" type="line"/>
			<point x="575" y="30" type="line"/>
			<point x="575" y="0" type="line"/>
			<point x="823" y="0" type="line"/>
			<point x="823" y="30" type="line"/>
			<point x="729" y="38" type="line"/>
			<point x="528" y="282" type="line"/>
			<point x="705" y="484" type="line"/>
			<point x="800" y="492" type="line"/>
			<point x="800" y="521" type="line"/>
			<point x="584" y="521" type="line"/>
		</contour>
	</outline>
</glyph>
<glyph name="cid59037" format="1" >
	<advance width="1000"/>
	<outline>
		<contour>
			<point x="630" y="492" type="line"/>
			<point x="729" y="485" type="line"/>
			<point x="535" y="47" type="line"/>
			<point x="341" y="484" type="line"/>
			<point x="442" y="492" type="line"/>
			<point x="442" y="521" type="line"/>
			<point x="171" y="521" type="line"/>
			<point x="171" y="492" type="line"/>
			<point x="272" y="484" type="line"/>
			<point x="504" y="-22" type="line"/>
			<point x="476" y="-86" type="line"/>
			<point x="434" y="-180" />
			<point x="379" y="-238" />
			<point x="302" y="-253" type="curve"/>
			<point x="287" y="-238" type="line"/>
			<point x="265" y="-217" />
			<point x="246" y="-207" />
			<point x="222" y="-207" type="curve"/>
			<point x="197" y="-207" />
			<point x="181" y="-219" />
			<point x="176" y="-240" type="curve"/>
			<point x="184" y="-270" />
			<point x="223" y="-283" />
			<point x="264" y="-283" type="curve"/>
			<point x="375" y="-283" />
			<point x="447" y="-226" />
			<point x="508" y="-93" type="curve"/>
			<point x="770" y="485" type="line"/>
			<point x="864" y="492" type="line"/>
			<point x="864" y="521" type="line"/>
			<point x="630" y="521" type="line"/>
		</contour>
	</outline>
</glyph>
<glyph name="cid59038" format="1" >
	<advance width="1000"/>
	<outline>
		<contour>
			<point x="253" y="0" type="line"/>
			<point x="751" y="0" type="line"/>
			<point x="759" y="160" type="line"/>
			<point x="721" y="160" type="line"/>
			<point x="696" y="29" type="line"/>
			<point x="332" y="29" type="line"/>
			<point x="742" y="494" type="line"/>
			<point x="742" y="521" type="line"/>
			<point x="265" y="521" type="line"/>
			<point x="257" y="377" type="line"/>
			<point x="295" y="373" type="line"/>
			<point x="317" y="493" type="line"/>
			<point x="666" y="493" type="line"/>
			<point x="253" y="26" type="line"/>
		</contour>
	</outline>
</glyph>
<glyph name="cid59120" format="1" >
	<advance width="1000"/>
	<outline>
		<contour>
			<point x="233" y="373" type="curve"/>
			<point x="233" y="642" />
			<point x="323" y="733" />
			<point x="414" y="733" type="curve"/>
			<point x="506" y="733" />
			<point x="596" y="642" />
			<point x="596" y="373" type="curve"/>
			<point x="596" y="104" />
			<point x="506" y="14" />
			<point x="414" y="14" type="curve"/>
			<point x="323" y="14" />
			<point x="233" y="104" />
		</contour>
		<contour>
			<point x="414" y="764" type="curve"/>
			<point x="285" y="764" />
			<point x="165" y="653" />
			<point x="165" y="373" type="curve"/>
			<point x="165" y="93" />
			<point x="285" y="-18" />
			<point x="414" y="-18" type="curve"/>
			<point x="544" y="-18" />
			<point x="663" y="93" />
			<point x="663" y="373" type="curve"/>
			<point x="663" y="653" />
			<point x="544" y="764" />
		</contour>
		<contour>
			<point x="780" y="-13" type="curve"/>
			<point x="812" y="-13" />
			<point x="835" y="13" />
			<point x="835" y="41" type="curve"/>
			<point x="835" y="71" />
			<point x="812" y="95" />
			<point x="780" y="95" type="curve"/>
			<point x="748" y="95" />
			<point x="725" y="71" />
			<point x="725" y="41" type="curve"/>
			<point x="725" y="13" />
			<point x="748" y="-13" />
		</contour>
	</outline>
</glyph>
<glyph name="cid59121" format="1" >
	<advance width="1000"/>
	<outline>
		<contour>
			<point x="232" y="373" type="curve"/>
			<point x="232" y="642" />
			<point x="322" y="733" />
			<point x="413" y="733" type="curve"/>
			<point x="504" y="733" />
			<point x="595" y="642" />
			<point x="595" y="373" type="curve"/>
			<point x="595" y="104" />
			<point x="504" y="14" />
			<point x="413" y="14" type="curve"/>
			<point x="322" y="14" />
			<point x="232" y="104" />
		</contour>
		<contour>
			<point x="413" y="764" type="curve"/>
			<point x="283" y="764" />
			<point x="164" y="653" />
			<point x="164" y="373" type="curve"/>
			<point x="164" y="93" />
			<point x="283" y="-18" />
			<point x="413" y="-18" type="curve"/>
			<point x="543" y="-18" />
			<point x="662" y="93" />
			<point x="662" y="373" type="curve"/>
			<point x="662" y="653" />
			<point x="543" y="764" />
		</contour>
		<contour>
			<point x="836" y="22" type="curve"/>
			<point x="836" y="41" />
			<point x="834" y="55" />
			<point x="827" y="74" type="curve"/>
			<point x="808" y="92" />
			<point x="796" y="95" />
			<point x="776" y="95" type="curve"/>
			<point x="743" y="95" />
			<point x="723" y="71" />
			<point x="723" y="43" type="curve"/>
			<point x="723" y="21" />
			<point x="735" y="-1" />
			<point x="759" y="-20" type="curve"/>
			<point x="784" y="-42" type="line"/>
			<point x="771" y="-82" />
			<point x="747" y="-119" />
			<point x="714" y="-152" type="curve"/>
			<point x="731" y="-175" type="line"/>
			<point x="790" y="-127" />
			<point x="833" y="-71" />
		</contour>
	</outline>
</glyph>
<glyph name="cid59122" format="1" >
	<advance width="1000"/>
	<outline>
		<contour>
			<point x="804" y="22" type="curve"/>
			<point x="805" y="41" />
			<point x="803" y="55" />
			<point x="795" y="74" type="curve"/>
			<point x="777" y="92" />
			<point x="765" y="95" />
			<point x="745" y="95" type="curve"/>
			<point x="711" y="95" />
			<point x="692" y="71" />
			<point x="692" y="43" type="curve"/>
			<point x="692" y="21" />
			<point x="703" y="-1" />
			<point x="727" y="-20" type="curve"/>
			<point x="752" y="-42" type="line"/>
			<point x="739" y="-83" />
			<point x="716" y="-119" />
			<point x="683" y="-152" type="curve"/>
			<point x="700" y="-175" type="line"/>
			<point x="758" y="-127" />
			<point x="802" y="-71" />
		</contour>
		<contour>
			<point x="217" y="703" type="line"/>
			<point x="217" y="671" type="line"/>
			<point x="376" y="706" type="line"/>
			<point x="376" y="244" type="line"/>
			<point x="374" y="38" type="line"/>
			<point x="196" y="30" type="line"/>
			<point x="196" y="0" type="line"/>
			<point x="613" y="0" type="line"/>
			<point x="613" y="30" type="line"/>
			<point x="441" y="38" type="line"/>
			<point x="439" y="107" />
			<point x="438" y="175" />
			<point x="438" y="244" type="curve"/>
			<point x="438" y="579" type="line"/>
			<point x="443" y="747" type="line"/>
			<point x="427" y="762" type="line"/>
		</contour>
	</outline>
</glyph>
<glyph name="cid59123" format="1" >
	<advance width="1000"/>
	<outline>
		<contour>
			<point x="185" y="0" type="line"/>
			<point x="646" y="0" type="line"/>
			<point x="646" y="53" type="line"/>
			<point x="232" y="53" type="line"/>
			<point x="462" y="304" type="line"/>
			<point x="560" y="402" />
			<point x="604" y="476" />
			<point x="604" y="563" type="curve"/>
			<point x="604" y="684" />
			<point x="532" y="764" />
			<point x="400" y="764" type="curve"/>
			<point x="296" y="764" />
			<point x="206" y="712" />
			<point x="179" y="625" type="curve"/>
			<point x="186" y="610" />
			<point x="197" y="602" />
			<point x="211" y="602" type="curve"/>
			<point x="228" y="602" />
			<point x="240" y="613" />
			<point x="250" y="640" type="curve"/>
			<point x="285" y="712" type="line"/>
			<point x="318" y="728" />
			<point x="348" y="733" />
			<point x="383" y="733" type="curve"/>
			<point x="485" y="733" />
			<point x="538" y="657" />
			<point x="538" y="565" type="curve"/>
			<point x="538" y="474" />
			<point x="507" y="411" />
			<point x="419" y="311" type="curve"/>
			<point x="185" y="41" type="line"/>
		</contour>
		<contour>
			<point x="821" y="22" type="curve"/>
			<point x="822" y="41" />
			<point x="819" y="55" />
			<point x="812" y="74" type="curve"/>
			<point x="793" y="92" />
			<point x="782" y="95" />
			<point x="761" y="95" type="curve"/>
			<point x="728" y="95" />
			<point x="708" y="71" />
			<point x="708" y="43" type="curve"/>
			<point x="708" y="21" />
			<point x="720" y="-1" />
			<point x="744" y="-20" type="curve"/>
			<point x="769" y="-42" type="line"/>
			<point x="756" y="-83" />
			<point x="733" y="-119" />
			<point x="699" y="-152" type="curve"/>
			<point x="716" y="-175" type="line"/>
			<point x="775" y="-127" />
			<point x="818" y="-71" />
		</contour>
	</outline>
</glyph>
<glyph name="cid59124" format="1" >
	<advance width="1000"/>
	<outline>
		<contour>
			<point x="314" y="406" type="line"/>
			<point x="314" y="375" type="line"/>
			<point x="365" y="375" type="line"/>
			<point x="496" y="375" />
			<point x="560" y="314" />
			<point x="560" y="196" type="curve"/>
			<point x="560" y="86" />
			<point x="492" y="14" />
			<point x="376" y="14" type="curve"/>
			<point x="324" y="14" />
			<point x="293" y="21" />
			<point x="264" y="36" type="curve"/>
			<point x="238" y="107" type="line"/>
			<point x="232" y="134" />
			<point x="220" y="142" />
			<point x="203" y="142" type="curve"/>
			<point x="187" y="142" />
			<point x="174" y="131" />
			<point x="171" y="114" type="curve"/>
			<point x="197" y="26" />
			<point x="274" y="-18" />
			<point x="389" y="-18" type="curve"/>
			<point x="528" y="-18" />
			<point x="628" y="62" />
			<point x="628" y="193" type="curve"/>
			<point x="628" y="306" />
			<point x="564" y="379" />
			<point x="443" y="393" type="curve"/>
			<point x="550" y="416" />
			<point x="603" y="493" />
			<point x="603" y="578" type="curve"/>
			<point x="603" y="685" />
			<point x="529" y="764" />
			<point x="403" y="764" type="curve"/>
			<point x="311" y="764" />
			<point x="214" y="726" />
			<point x="192" y="628" type="curve"/>
			<point x="196" y="616" />
			<point x="207" y="608" />
			<point x="221" y="608" type="curve"/>
			<point x="238" y="608" />
			<point x="250" y="616" />
			<point x="258" y="641" type="curve"/>
			<point x="284" y="710" type="line"/>
			<point x="318" y="726" />
			<point x="350" y="732" />
			<point x="390" y="732" type="curve"/>
			<point x="484" y="732" />
			<point x="538" y="670" />
			<point x="538" y="576" type="curve"/>
			<point x="538" y="466" />
			<point x="463" y="406" />
			<point x="364" y="406" type="curve"/>
		</contour>
		<contour>
			<point x="828" y="22" type="curve"/>
			<point x="829" y="41" />
			<point x="827" y="55" />
			<point x="819" y="74" type="curve"/>
			<point x="801" y="92" />
			<point x="789" y="95" />
			<point x="769" y="95" type="curve"/>
			<point x="735" y="95" />
			<point x="716" y="71" />
			<point x="716" y="43" type="curve"/>
			<point x="716" y="21" />
			<point x="727" y="-1" />
			<point x="751" y="-20" type="curve"/>
			<point x="776" y="-42" type="line"/>
			<point x="763" y="-83" />
			<point x="740" y="-119" />
			<point x="707" y="-152" type="curve"/>
			<point x="724" y="-175" type="line"/>
			<point x="782" y="-127" />
			<point x="826" y="-71" />
		</contour>
	</outline>
</glyph>
<glyph name="cid59125" format="1" >
	<advance width="1000"/>
	<outline>
		<contour>
			<point x="199" y="279" type="line"/>
			<point x="495" y="684" type="line"/>
			<point x="495" y="279" type="line"/>
		</contour>
		<contour>
			<point x="690" y="230" type="line"/>
			<point x="690" y="279" type="line"/>
			<point x="553" y="279" type="line"/>
			<point x="553" y="756" type="line"/>
			<point x="511" y="756" type="line"/>
			<point x="155" y="271" type="line"/>
			<point x="155" y="230" type="line"/>
			<point x="495" y="230" type="line"/>
			<point x="495" y="0" type="line"/>
			<point x="553" y="0" type="line"/>
			<point x="553" y="230" type="line"/>
		</contour>
		<contour>
			<point x="845" y="22" type="curve"/>
			<point x="846" y="41" />
			<point x="843" y="55" />
			<point x="836" y="74" type="curve"/>
			<point x="817" y="92" />
			<point x="805" y="95" />
			<point x="785" y="95" type="curve"/>
			<point x="752" y="95" />
			<point x="732" y="71" />
			<point x="732" y="43" type="curve"/>
			<point x="732" y="21" />
			<point x="744" y="-1" />
			<point x="768" y="-20" type="curve"/>
			<point x="793" y="-42" type="line"/>
			<point x="780" y="-83" />
			<point x="757" y="-119" />
			<point x="723" y="-152" type="curve"/>
			<point x="740" y="-175" type="line"/>
			<point x="799" y="-127" />
			<point x="842" y="-71" />
		</contour>
	</outline>
</glyph>
<glyph name="cid59126" format="1" >
	<advance width="1000"/>
	<outline>
		<contour>
			<point x="274" y="692" type="line"/>
			<point x="616" y="692" type="line"/>
			<point x="616" y="747" type="line"/>
			<point x="244" y="747" type="line"/>
			<point x="219" y="388" type="line"/>
			<point x="240" y="383" type="line"/>
			<point x="290" y="417" />
			<point x="339" y="432" />
			<point x="392" y="432" type="curve"/>
			<point x="500" y="432" />
			<point x="575" y="363" />
			<point x="575" y="227" type="curve"/>
			<point x="575" y="93" />
			<point x="504" y="14" />
			<point x="383" y="14" type="curve"/>
			<point x="333" y="14" />
			<point x="296" y="22" />
			<point x="263" y="38" type="curve"/>
			<point x="235" y="111" type="line"/>
			<point x="228" y="135" />
			<point x="219" y="144" />
			<point x="199" y="144" type="curve"/>
			<point x="185" y="144" />
			<point x="172" y="135" />
			<point x="168" y="119" type="curve"/>
			<point x="188" y="29" />
			<point x="272" y="-18" />
			<point x="386" y="-18" type="curve"/>
			<point x="545" y="-18" />
			<point x="642" y="83" />
			<point x="642" y="234" type="curve"/>
			<point x="642" y="376" />
			<point x="555" y="468" />
			<point x="409" y="468" type="curve"/>
			<point x="349" y="468" />
			<point x="300" y="454" />
			<point x="255" y="427" type="curve"/>
		</contour>
		<contour>
			<point x="832" y="22" type="curve"/>
			<point x="833" y="41" />
			<point x="831" y="55" />
			<point x="823" y="74" type="curve"/>
			<point x="805" y="92" />
			<point x="793" y="95" />
			<point x="773" y="95" type="curve"/>
			<point x="739" y="95" />
			<point x="720" y="71" />
			<point x="720" y="43" type="curve"/>
			<point x="720" y="21" />
			<point x="731" y="-1" />
			<point x="755" y="-20" type="curve"/>
			<point x="780" y="-42" type="line"/>
			<point x="767" y="-83" />
			<point x="744" y="-119" />
			<point x="711" y="-152" type="curve"/>
			<point x="728" y="-175" type="line"/>
			<point x="786" y="-127" />
			<point x="830" y="-71" />
		</contour>
	</outline>
</glyph>
<glyph name="cid59127" format="1" >
	<advance width="1000"/>
	<outline>
		<contour>
			<point x="243" y="359" type="curve"/>
			<point x="270" y="543" />
			<point x="399" y="696" />
			<point x="620" y="737" type="curve"/>
			<point x="615" y="764" type="line"/>
			<point x="337" y="730" />
			<point x="171" y="509" />
			<point x="171" y="281" type="curve"/>
			<point x="171" y="99" />
			<point x="258" y="-18" />
			<point x="406" y="-18" type="curve"/>
			<point x="534" y="-18" />
			<point x="633" y="80" />
			<point x="633" y="229" type="curve"/>
			<point x="633" y="368" />
			<point x="555" y="451" />
			<point x="431" y="451" type="curve"/>
			<point x="355" y="451" />
			<point x="293" y="424" />
		</contour>
		<contour>
			<point x="408" y="14" type="curve"/>
			<point x="299" y="14" />
			<point x="237" y="125" />
			<point x="237" y="282" type="curve"/>
			<point x="238" y="321" type="line"/>
			<point x="293" y="392" />
			<point x="349" y="417" />
			<point x="411" y="417" type="curve"/>
			<point x="506" y="417" />
			<point x="567" y="350" />
			<point x="567" y="224" type="curve"/>
			<point x="567" y="89" />
			<point x="495" y="14" />
		</contour>
		<contour>
			<point x="829" y="22" type="curve"/>
			<point x="830" y="41" />
			<point x="828" y="55" />
			<point x="820" y="74" type="curve"/>
			<point x="802" y="92" />
			<point x="790" y="95" />
			<point x="770" y="95" type="curve"/>
			<point x="736" y="95" />
			<point x="717" y="71" />
			<point x="717" y="43" type="curve"/>
			<point x="717" y="21" />
			<point x="728" y="-1" />
			<point x="752" y="-20" type="curve"/>
			<point x="777" y="-42" type="line"/>
			<point x="764" y="-83" />
			<point x="741" y="-119" />
			<point x="708" y="-152" type="curve"/>
			<point x="725" y="-175" type="line"/>
			<point x="783" y="-127" />
			<point x="827" y="-71" />
		</contour>
	</outline>
</glyph>
<glyph name="cid59128" format="1" >
	<advance width="1000"/>
	<outline>
		<contour>
			<point x="329" y="5" type="line"/>
			<point x="335" y="0" type="line"/>
			<point x="392" y="0" type="line"/>
			<point x="684" y="709" type="line"/>
			<point x="684" y="746" type="line"/>
			<point x="216" y="746" type="line"/>
			<point x="216" y="692" type="line"/>
			<point x="641" y="692" type="line"/>
		</contour>
		<contour>
			<point x="783" y="22" type="curve"/>
			<point x="784" y="41" />
			<point x="782" y="55" />
			<point x="774" y="74" type="curve"/>
			<point x="756" y="92" />
			<point x="744" y="95" />
			<point x="724" y="95" type="curve"/>
			<point x="690" y="95" />
			<point x="671" y="71" />
			<point x="671" y="43" type="curve"/>
			<point x="671" y="21" />
			<point x="682" y="-1" />
			<point x="706" y="-20" type="curve"/>
			<point x="731" y="-42" type="line"/>
			<point x="718" y="-83" />
			<point x="695" y="-119" />
			<point x="662" y="-152" type="curve"/>
			<point x="679" y="-175" type="line"/>
			<point x="737" y="-127" />
			<point x="781" y="-71" />
		</contour>
	</outline>
</glyph>
<glyph name="cid59129" format="1" >
	<advance width="1000"/>
	<outline>
		<contour>
			<point x="165" y="159" type="curve"/>
			<point x="165" y="52" />
			<point x="247" y="-18" />
			<point x="393" y="-18" type="curve"/>
			<point x="544" y="-18" />
			<point x="633" y="56" />
			<point x="633" y="172" type="curve"/>
			<point x="633" y="267" />
			<point x="583" y="333" />
			<point x="435" y="395" type="curve"/>
			<point x="552" y="448" />
			<point x="601" y="512" />
			<point x="601" y="592" type="curve"/>
			<point x="601" y="695" />
			<point x="525" y="764" />
			<point x="401" y="764" type="curve"/>
			<point x="281" y="764" />
			<point x="188" y="690" />
			<point x="188" y="577" type="curve"/>
			<point x="188" y="490" />
			<point x="237" y="420" />
			<point x="351" y="370" type="curve"/>
			<point x="227" y="316" />
			<point x="165" y="253" />
		</contour>
		<contour>
			<point x="409" y="406" type="curve"/>
			<point x="286" y="457" />
			<point x="244" y="517" />
			<point x="244" y="587" type="curve"/>
			<point x="244" y="676" />
			<point x="313" y="733" />
			<point x="400" y="733" type="curve"/>
			<point x="491" y="733" />
			<point x="548" y="675" />
			<point x="548" y="591" type="curve"/>
			<point x="548" y="511" />
			<point x="507" y="465" />
		</contour>
		<contour>
			<point x="377" y="359" type="curve"/>
			<point x="533" y="296" />
			<point x="576" y="243" />
			<point x="576" y="163" type="curve"/>
			<point x="576" y="71" />
			<point x="510" y="14" />
			<point x="398" y="14" type="curve"/>
			<point x="285" y="14" />
			<point x="220" y="71" />
			<point x="220" y="163" type="curve"/>
			<point x="220" y="244" />
			<point x="263" y="295" />
		</contour>
		<contour>
			<point x="835" y="22" type="curve"/>
			<point x="836" y="41" />
			<point x="834" y="55" />
			<point x="827" y="74" type="curve"/>
			<point x="808" y="92" />
			<point x="796" y="95" />
			<point x="776" y="95" type="curve"/>
			<point x="743" y="95" />
			<point x="723" y="71" />
			<point x="723" y="43" type="curve"/>
			<point x="723" y="21" />
			<point x="735" y="-1" />
			<point x="758" y="-20" type="curve"/>
			<point x="783" y="-42" type="line"/>
			<point x="770" y="-83" />
			<point x="747" y="-119" />
			<point x="714" y="-152" type="curve"/>
			<point x="731" y="-175" type="line"/>
			<point x="789" y="-127" />
			<point x="833" y="-71" />
		</contour>
	</outline>
</glyph>
<glyph name="cid59130" format="1" >
	<advance width="1000"/>
	<outline>
		<contour>
			<point x="604" y="376" type="curve"/>
			<point x="574" y="214" />
			<point x="458" y="83" />
			<point x="263" y="10" type="curve"/>
			<point x="271" y="-18" type="line"/>
			<point x="529" y="60" />
			<point x="679" y="239" />
			<point x="679" y="458" type="curve"/>
			<point x="679" y="649" />
			<point x="590" y="764" />
			<point x="444" y="764" type="curve"/>
			<point x="319" y="764" />
			<point x="218" y="671" />
			<point x="216" y="537" type="curve"/>
			<point x="216" y="392" />
			<point x="302" y="303" />
			<point x="432" y="303" type="curve"/>
			<point x="504" y="303" />
			<point x="565" y="330" />
		</contour>
		<contour>
			<point x="282" y="537" type="curve"/>
			<point x="282" y="659" />
			<point x="354" y="732" />
			<point x="442" y="732" type="curve"/>
			<point x="542" y="732" />
			<point x="612" y="645" />
			<point x="612" y="463" type="curve"/>
			<point x="612" y="446" />
			<point x="611" y="429" />
			<point x="609" y="412" type="curve"/>
			<point x="568" y="361" />
			<point x="510" y="336" />
			<point x="452" y="336" type="curve"/>
			<point x="349" y="336" />
			<point x="282" y="413" />
		</contour>
		<contour>
			<point x="784" y="22" type="curve"/>
			<point x="784" y="41" />
			<point x="782" y="55" />
			<point x="775" y="74" type="curve"/>
			<point x="756" y="92" />
			<point x="744" y="95" />
			<point x="724" y="95" type="curve"/>
			<point x="691" y="95" />
			<point x="671" y="71" />
			<point x="671" y="43" type="curve"/>
			<point x="671" y="21" />
			<point x="683" y="-1" />
			<point x="706" y="-20" type="curve"/>
			<point x="731" y="-42" type="line"/>
			<point x="718" y="-83" />
			<point x="695" y="-119" />
			<point x="662" y="-152" type="curve"/>
			<point x="679" y="-175" type="line"/>
			<point x="738" y="-127" />
			<point x="781" y="-71" />
		</contour>
	</outline>
</glyph>
